<?xml version="1.0" standalone="no"?>
<!DOCTYPE svg PUBLIC "-//W3C//DTD SVG 20010904//EN"
 "http://www.w3.org/TR/2001/REC-SVG-20010904/DTD/svg10.dtd">
<svg version="1.0" xmlns="http://www.w3.org/2000/svg"
 width="1017.000000pt" height="563.000000pt" viewBox="0 0 1017.000000 563.000000"
 preserveAspectRatio="xMidYMid meet">

<g transform="translate(0.000000,563.000000) scale(0.100000,-0.100000)"
fill="#000000" stroke="none">
<path d="M1110 5201 l0 -428 -26 5 c-25 5 -25 5 -21 -57 3 -45 10 -67 25 -84
22 -23 22 -29 22 -335 0 -305 0 -312 -20 -312 -18 0 -20 -7 -20 -58 0 -46 4
-63 20 -77 20 -18 20 -31 20 -1266 0 -1239 0 -1248 -20 -1254 -25 -8 -26 -25
-2 -25 16 -1 16 -1 0 -11 -10 -5 -18 -21 -18 -35 0 -21 3 -24 25 -18 22 5 25
3 25 -20 l0 -26 99 0 c113 0 131 4 131 31 0 15 7 19 39 19 51 0 71 8 64 26 -4
10 3 14 25 14 43 0 62 9 62 31 0 16 8 19 46 19 37 0 47 4 51 20 4 16 14 20 44
20 27 0 39 4 39 14 0 17 22 26 61 26 18 0 29 5 29 14 0 12 28 26 56 26 8 0 11
-32 10 -97 l-1 -96 -94 -18 c-52 -10 -97 -17 -99 -14 -2 2 7 7 22 11 14 3 26
10 26 16 0 5 -10 6 -22 3 -58 -17 -94 -31 -99 -38 -3 -5 -25 -18 -48 -30 -222
-117 -269 -142 -267 -145 2 -1 68 29 147 68 127 63 161 75 284 101 76 16 144
29 150 29 27 -1 -29 -20 -105 -35 -47 -9 -92 -21 -100 -26 -11 -7 -8 -8 10 -4
137 29 174 32 188 19 7 -8 17 -12 22 -9 10 6 24 -14 25 -35 0 -20 35 -26 35
-6 0 9 5 16 11 16 5 0 7 -4 4 -10 -3 -5 6 -12 21 -16 l27 -7 -24 -13 c-13 -7
-32 -13 -41 -14 -10 0 -17 -5 -15 -11 1 -6 -61 -49 -138 -95 -151 -89 -208
-128 -145 -98 19 9 80 44 135 77 55 33 126 75 157 94 36 21 88 40 145 53 48
10 180 39 291 64 112 25 209 46 215 45 25 -1 -34 -18 -134 -39 -57 -12 -111
-26 -119 -31 -32 -18 19 -9 267 49 81 19 119 24 112 16 -6 -7 -35 -18 -65 -25
-56 -13 -75 -29 -26 -23 39 6 14 -4 -96 -37 -88 -27 -82 -33 11 -10 20 5 37 5
37 1 0 -9 -72 -40 -98 -41 -11 -1 -9 -3 6 -8 24 -6 -44 -60 -381 -300 -48 -34
-87 -65 -87 -67 0 -8 11 0 210 141 296 211 352 247 404 261 47 12 70 24 48 24
-6 0 -23 -5 -39 -11 -24 -9 -26 -8 -13 4 16 14 99 41 163 53 20 3 40 11 44 17
6 9 -22 7 -107 -9 -14 -2 -7 3 14 11 39 15 68 34 33 22 -27 -10 -10 11 22 28
16 8 30 12 33 10 2 -3 4 14 4 38 l-1 42 -50 -2 c-28 -1 -115 -5 -195 -9 -80
-4 -165 -7 -189 -7 -30 0 -39 -2 -30 -9 10 -7 8 -8 -8 -3 -12 3 -61 -1 -110
-11 -93 -17 -129 -31 -53 -20 27 3 39 2 30 -3 -25 -14 -91 -21 -84 -9 5 8 -6
9 -34 5 -23 -4 -61 -9 -84 -12 l-43 -4 47 12 c57 15 74 28 21 17 -21 -4 -55
-10 -76 -13 l-37 -6 2 120 2 119 38 0 c25 0 37 4 35 13 -1 7 11 13 31 15 20 2
32 9 32 18 0 9 11 14 35 14 24 0 35 5 35 15 0 10 10 15 30 15 21 0 30 5 30 16
0 11 5 14 16 10 9 -3 20 -6 25 -6 5 0 9 -7 9 -16 0 -16 -54 -43 -107 -51 -18
-3 -30 -9 -28 -13 3 -4 -7 -11 -22 -15 -16 -3 -30 -10 -33 -14 -3 -4 -21 -14
-40 -24 -34 -16 -34 -17 -8 -17 15 0 30 5 33 10 3 6 21 10 38 10 22 0 28 -3
18 -9 -11 -7 -10 -10 6 -15 35 -11 70 12 43 29 -5 3 -10 1 -10 -4 0 -6 -4 -11
-8 -11 -5 0 -9 7 -9 15 0 13 39 22 71 16 25 -5 55 10 50 24 -7 17 4 19 39 6
19 -7 30 -4 52 15 33 28 41 27 165 -10 41 -13 130 -36 198 -51 67 -16 127 -32
133 -36 14 -8 19 -307 6 -364 -5 -22 -11 -92 -14 -155 l-4 -115 -42 -37 c-23
-20 -38 -37 -34 -38 5 0 29 17 53 39 29 25 59 41 86 46 24 4 35 10 26 12 -10
3 -18 10 -18 17 0 16 79 76 110 82 36 8 245 60 310 78 30 8 120 33 200 54 80
22 158 43 173 46 l29 7 -19 -25 c-19 -25 -32 -30 -288 -101 -197 -55 -329 -96
-339 -106 -6 -5 -7 -9 -3 -9 11 0 117 29 201 55 165 51 368 106 373 101 3 -2
-7 -21 -22 -40 -18 -23 -36 -36 -51 -36 -27 0 -113 -28 -131 -42 -15 -12 -5
-38 15 -38 13 0 12 3 -4 15 -18 14 -18 14 11 14 17 0 39 -4 50 -9 l20 -9 -20
-1 c-19 -1 -19 -2 2 -12 25 -12 53 3 53 28 0 20 141 164 160 164 10 0 11 3 3
8 -17 11 46 91 72 92 15 0 17 2 6 9 -11 7 -4 22 33 70 26 34 44 61 39 61 -4 0
-23 -20 -41 -43 -63 -82 -114 -134 -107 -109 4 13 7 49 7 80 l1 57 36 6 36 6
-37 2 c-43 1 -52 20 -10 22 l27 1 -25 7 c-24 7 -25 10 -28 108 -2 90 -1 102
15 107 18 4 162 21 456 51 181 18 167 19 167 -5 0 -18 -7 -20 -71 -20 -77 0
-202 -16 -235 -30 -49 -20 -34 -83 23 -99 99 -28 400 -22 491 10 29 10 32 15
32 49 0 22 -5 42 -10 45 -6 4 -53 11 -106 18 -87 10 -95 12 -92 31 3 19 14 22
103 33 55 6 110 12 123 12 l23 1 -2 -178 -2 -177 71 4 72 3 0 -106 0 -106 28
-13 c15 -6 30 -15 33 -20 4 -5 11 5 17 21 8 22 18 32 39 35 24 3 23 4 -9 6
-27 1 -38 6 -43 21 -8 25 4 150 15 150 4 0 5 -21 3 -47 -4 -46 -4 -47 10 -22
7 14 17 38 21 53 4 15 11 24 15 21 5 -3 12 1 14 7 4 10 6 10 6 1 1 -17 40 -16
75 2 15 8 42 15 60 15 17 0 37 4 45 9 10 6 -6 9 -45 9 -112 0 -125 2 -119 12
9 15 -2 12 -19 -6 -15 -14 -17 -13 -25 8 -8 20 -10 21 -16 5 -11 -26 -35 -21
-35 8 0 24 3 25 38 21 20 -3 94 -5 164 -5 l127 -1 3 -93 c3 -87 4 -92 26 -95
21 -3 22 -1 22 92 l0 96 255 0 255 0 -2 -42 c-3 -38 0 -43 20 -46 l22 -3 0
190 0 191 29 0 c33 0 81 -34 81 -57 0 -9 6 -24 14 -32 7 -9 18 -29 23 -46 10
-30 10 -30 104 -37 52 -3 224 -7 382 -7 159 -1 286 -4 284 -8 -3 -5 -35 -111
-72 -238 -36 -126 -68 -238 -71 -247 -5 -17 -31 -18 -332 -20 l-327 -3 323 -2
c177 -2 322 -7 322 -11 0 -4 -142 -6 -314 -5 -200 2 -317 -1 -321 -7 -4 -7
-13 -7 -25 0 -11 6 -33 9 -50 8 -26 -2 -30 -6 -31 -33 -2 -27 -2 -28 -6 -5 -7
33 -18 39 -71 35 -57 -5 -124 -5 -484 -1 -171 2 -298 0 -298 -5 0 -5 4 -9 8
-9 4 0 8 -9 8 -20 0 -11 -6 -20 -13 -20 -7 0 -13 -8 -13 -17 0 -16 2 -16 11
-3 8 12 9 10 4 -8 -14 -49 -17 -152 -9 -270 5 -72 3 -86 -13 -104 -10 -12 -12
-18 -4 -13 11 6 13 3 7 -16 -4 -13 -9 -44 -11 -69 -2 -25 -7 -72 -11 -105 -4
-33 -8 -69 -9 -80 -1 -11 -9 -54 -19 -95 -18 -85 -21 -140 -6 -140 6 0 10 6
10 13 0 14 10 76 45 292 21 129 42 362 45 503 0 12 5 22 10 22 6 0 8 -10 4
-24 -3 -13 -1 -27 5 -30 11 -7 15 15 13 64 -1 21 0 22 7 6 7 -18 8 -18 14 -2
4 9 12 14 18 11 6 -5 8 -34 4 -83 -3 -43 -8 -153 -10 -247 -2 -93 -11 -224
-20 -290 -18 -141 -19 -235 -4 -235 5 0 8 4 5 9 -3 4 1 64 8 132 21 186 35
394 41 585 2 94 7 178 10 186 3 7 15 14 26 15 16 2 19 -2 13 -20 -3 -12 -11
-26 -16 -32 -7 -7 -8 -2 -3 13 4 13 2 22 -4 22 -12 0 -14 -20 -5 -44 3 -8 12
-12 21 -9 12 5 14 0 9 -28 l-6 -34 13 34 c16 40 30 28 18 -15 -4 -16 -5 -60
-1 -99 7 -77 5 -301 -5 -552 -5 -108 -3 -163 3 -163 6 0 10 15 10 33 0 17 3
72 6 122 4 50 8 237 9 417 2 288 8 375 24 330 4 -10 8 -10 19 -1 11 9 14 8 14
-5 0 -9 4 -16 8 -16 13 0 35 -542 29 -682 -4 -68 -3 -141 2 -163 16 -74 18
213 5 641 -5 153 -4 213 5 218 6 4 11 2 11 -4 0 -6 5 -8 10 -5 6 3 10 -3 10
-15 0 -12 4 -19 9 -16 5 3 12 -16 16 -42 3 -26 8 -61 10 -77 4 -26 12 -106 29
-300 3 -27 8 -137 12 -242 4 -106 11 -193 15 -193 12 0 -8 486 -31 738 -11
115 -4 150 23 112 10 -14 20 -19 29 -14 10 6 10 5 -1 -9 -7 -10 -10 -24 -6
-34 7 -17 8 -16 15 2 6 13 9 15 9 5 1 -8 10 -87 22 -175 11 -88 22 -187 24
-220 2 -33 9 -100 15 -150 5 -50 10 -121 10 -160 0 -38 5 -77 10 -85 19 -30
10 140 -25 456 -33 301 -42 421 -26 365 6 -21 8 -22 20 -7 7 9 19 16 25 16 6
0 4 -4 -4 -10 -12 -8 -12 -10 2 -15 15 -6 32 -58 43 -130 2 -11 8 -49 13 -85
6 -36 14 -101 17 -145 4 -44 11 -99 16 -123 5 -24 11 -69 14 -100 9 -116 28
-232 38 -232 11 0 4 94 -19 235 -8 50 -23 169 -34 265 -10 96 -24 191 -30 210
-15 52 -13 120 4 120 10 0 13 -12 10 -46 -3 -45 9 -50 19 -9 4 18 5 18 6 -2 0
-13 7 -23 14 -23 11 0 34 -46 44 -90 2 -8 10 -71 19 -140 15 -129 20 -164 55
-360 29 -162 28 -160 40 -160 12 0 6 51 -26 215 -13 66 -33 192 -45 280 -11
88 -25 173 -30 189 -15 44 -12 63 10 69 13 3 20 0 20 -10 0 -12 3 -11 18 3 16
17 17 16 20 -21 2 -22 8 -45 14 -52 5 -6 20 -76 34 -155 13 -79 33 -186 45
-238 11 -52 27 -137 36 -187 11 -65 20 -93 29 -93 8 0 14 3 14 8 0 13 -39 184
-59 262 -10 41 -29 139 -41 218 -12 78 -28 164 -36 189 -16 53 -9 113 13 113
8 0 11 -4 8 -10 -3 -5 -2 -10 4 -10 5 0 12 6 14 13 4 9 8 8 16 -3 6 -8 11 -10
12 -5 1 6 5 -17 10 -50 4 -33 15 -85 24 -115 9 -30 19 -66 21 -80 13 -70 31
-149 67 -290 22 -85 44 -174 49 -197 5 -24 14 -43 19 -43 13 0 11 26 -6 84
-13 47 -70 286 -111 466 -9 41 -23 87 -30 102 -15 29 -19 97 -6 99 4 0 23 1
42 2 35 2 35 2 40 -48 3 -27 11 -59 17 -70 16 -28 53 -141 53 -160 0 -9 8 -41
19 -73 10 -31 24 -84 31 -117 7 -33 20 -82 31 -110 14 -38 39 -148 39 -172 0
-2 7 -3 15 -3 19 0 19 -1 -11 100 -14 47 -34 119 -45 160 -53 205 -83 308
-105 358 -13 30 -24 69 -24 86 0 18 -5 37 -12 44 -9 9 15 12 108 10 103 -1
110 -2 54 -8 l-65 -7 55 -2 c30 -2 60 -4 65 -6 6 -1 35 -4 65 -5 46 -3 40 -5
-40 -10 l-95 -7 110 -2 c61 -2 136 -2 168 -2 32 1 62 -1 67 -4 16 -10 -1 -35
-24 -36 -16 -1 -17 -2 -3 -6 21 -6 21 -31 -2 -103 l-17 -55 -26 45 c-15 25
-30 62 -33 83 -8 41 -25 51 -25 14 0 -21 46 -126 60 -137 17 -13 19 -47 6 -98
-8 -32 -17 -70 -21 -87 -6 -26 -12 -15 -55 98 -26 70 -55 138 -63 151 -9 13
-21 45 -28 70 -7 29 -17 46 -26 46 -10 0 -13 -6 -9 -16 3 -9 9 -28 12 -42 4
-15 13 -34 21 -43 8 -9 25 -45 37 -80 13 -35 26 -71 29 -79 4 -8 20 -54 36
-102 l29 -86 -22 -94 c-27 -110 -17 -125 -111 167 -37 116 -78 233 -92 261
-13 29 -27 73 -31 100 -4 26 -13 49 -20 52 -23 7 -2 -97 29 -147 16 -24 32
-61 35 -80 4 -20 10 -40 14 -46 4 -5 11 -27 14 -49 4 -21 11 -46 16 -55 5 -9
33 -91 62 -183 l53 -168 1657 0 c1316 0 1657 3 1661 13 4 10 6 10 6 0 1 -9 25
-13 86 -13 87 0 107 10 60 32 -19 8 -22 14 -14 24 6 7 8 17 5 22 -3 6 6 13 19
16 15 4 23 11 19 17 -5 8 -9 8 -13 0 -5 -8 -13 -5 -26 9 -14 15 -15 20 -4 20
8 1 2 8 -13 16 -16 8 -28 19 -28 24 0 5 -9 12 -20 15 -23 7 -27 35 -6 35 8 0
20 2 28 3 7 2 10 2 5 0 -14 -9 -7 -22 16 -25 12 -2 22 -10 21 -18 -1 -9 7 -16
17 -16 11 0 19 7 19 16 0 13 1 13 10 0 12 -18 13 -53 2 -46 -4 2 -14 1 -21 -3
-9 -6 -7 -10 8 -14 12 -3 21 -1 21 4 0 5 5 9 10 9 6 0 10 -7 10 -15 0 -8 -4
-15 -10 -15 -5 0 -10 -4 -10 -10 0 -18 18 -11 25 10 3 11 13 20 21 20 14 0 14
2 0 15 -8 8 -20 15 -28 15 -7 0 -3 7 10 15 16 12 26 13 42 5 11 -6 20 -7 20
-3 0 4 9 -3 21 -16 12 -13 19 -30 16 -42 -3 -10 -2 -17 2 -15 3 2 14 -2 24 -9
16 -11 16 -13 2 -19 -9 -3 -25 -2 -35 4 -13 7 -19 6 -23 -4 -7 -17 16 -28 41
-19 14 5 15 3 5 -7 -21 -22 -63 3 -56 32 4 13 11 26 17 30 7 5 5 13 -8 25 -17
17 -18 17 -11 -6 5 -16 4 -21 -4 -17 -6 4 -11 4 -10 -1 1 -4 1 -16 0 -26 -1
-15 -4 -16 -22 -6 -17 9 -24 8 -31 -2 -7 -11 -11 -11 -15 -1 -7 17 -24 15 -39
-6 -18 -24 -17 -32 5 -32 10 0 21 -9 24 -20 4 -16 14 -20 49 -20 23 0 55 6 70
14 23 12 26 12 21 0 -4 -11 7 -14 52 -14 l57 0 -6 43 c-3 23 -5 43 -5 45 -1 1
-8 2 -16 2 -8 0 -15 5 -15 11 0 6 -9 9 -20 6 -11 -3 -22 -2 -25 3 -2 4 9 10
26 14 45 9 49 8 49 -10 0 -8 4 -13 9 -10 5 3 8 -8 7 -24 -2 -31 8 -40 18 -17
6 13 -4 -30 -11 -50 -3 -8 4 -13 20 -13 16 0 27 7 30 17 4 17 5 17 6 1 0 -10
6 -18 11 -18 6 0 9 20 8 45 -2 27 -8 45 -15 45 -6 0 -19 10 -27 22 -9 12 -16
18 -16 13 0 -6 -3 -6 -8 0 -12 17 -61 35 -67 25 -10 -15 -48 -1 -72 26 -13 15
-23 30 -23 34 0 4 -10 12 -23 19 l-22 12 23 -5 c13 -2 20 0 16 6 -4 5 -17 8
-30 5 -13 -2 -29 2 -36 10 -6 8 -17 12 -25 9 -8 -3 -11 -2 -8 3 3 5 0 13 -6
16 -7 5 -9 -1 -7 -16 2 -18 9 -23 24 -21 17 2 21 -3 21 -29 0 -28 -2 -30 -13
-14 -7 10 -23 23 -35 29 -12 6 -24 17 -27 25 -3 8 0 11 7 7 6 -4 11 -4 10 1
-1 4 1 16 5 25 6 13 13 15 33 7 31 -12 36 -11 28 1 -3 5 0 10 7 11 7 0 2 5
-12 10 -24 10 -24 11 -6 25 24 17 4 19 -25 2 -17 -11 -22 -10 -34 6 -8 10 -21
16 -29 13 -20 -8 -10 -34 15 -42 16 -5 28 -25 16 -25 -10 0 -74 35 -91 49 -11
9 -16 11 -13 4 4 -6 3 -14 -3 -18 -14 -9 -12 -22 4 -28 10 -4 13 -1 9 9 -3 7
0 14 6 14 6 0 11 -4 11 -9 0 -5 14 -14 30 -20 32 -11 35 -17 21 -40 -7 -12
-18 -8 -58 21 -26 19 -50 42 -51 52 -2 10 0 16 5 13 5 -4 10 0 10 8 0 12 -3
12 -21 0 -18 -13 -22 -13 -41 4 -11 11 -29 21 -40 23 -23 4 -92 128 -72 128 7
1 0 8 -15 16 -16 8 -28 20 -28 26 0 6 6 5 16 -3 15 -12 16 -11 9 11 -10 32 -6
29 -47 34 -33 4 -35 3 -30 -20 3 -18 8 -22 15 -15 14 14 27 14 27 0 0 -5 -4
-7 -10 -4 -5 3 -10 2 -10 -3 0 -5 15 -17 33 -26 21 -10 26 -16 13 -16 -18 0
-18 -1 1 -17 10 -10 17 -17 14 -16 -2 2 -10 -5 -18 -15 -13 -16 -14 -15 -8 6
4 13 2 22 -4 22 -6 0 -11 -4 -11 -9 0 -5 -3 -16 -6 -24 -3 -9 2 -16 15 -20 12
-3 22 1 26 11 5 13 8 12 20 -4 12 -16 12 -20 0 -30 -8 -6 -15 -17 -15 -25 0
-9 -3 -10 -8 -3 -4 6 -14 14 -22 17 -11 4 -10 6 4 6 14 1 17 4 10 11 -7 7 -20
6 -40 -5 -36 -18 -48 -19 -63 -2 -7 9 -7 17 0 24 13 13 -4 59 -23 61 -38 3
-69 10 -76 17 -4 5 1 5 11 2 28 -10 41 3 20 19 -10 7 -13 14 -6 14 6 0 15 -5
18 -11 4 -6 14 -8 22 -4 13 4 14 3 3 -10 -11 -13 -10 -14 4 -9 9 4 16 14 14
23 -4 19 -50 44 -58 31 -4 -6 -14 -3 -26 6 -15 13 -16 15 -2 10 11 -3 19 2 23
13 3 12 15 19 31 19 18 0 22 -4 15 -11 -15 -15 -14 -30 1 -21 6 4 8 3 5 -3 -4
-6 0 -14 9 -17 9 -4 13 -2 8 5 -4 6 0 15 7 20 10 6 11 9 2 9 -7 0 -13 4 -13 9
0 5 9 7 20 4 11 -3 20 -1 20 5 0 14 -64 25 -68 12 -3 -7 -8 -7 -18 1 -11 9
-16 6 -23 -12 -5 -13 -10 -19 -10 -13 -1 7 -21 15 -46 18 -29 5 -45 12 -45 22
0 8 5 14 10 14 6 0 10 -4 10 -9 0 -10 30 -24 37 -17 8 8 -49 66 -65 66 -15 -1
-15 -2 1 -14 13 -10 14 -15 4 -19 -17 -6 -52 19 -37 28 33 20 -34 34 -71 15
-24 -13 -24 -26 -1 -34 9 -3 23 -9 31 -12 9 -4 11 -2 7 5 -4 6 -2 11 3 11 14
0 14 -11 0 -30 -8 -11 -12 -12 -16 -2 -2 6 -15 12 -28 12 -13 0 -26 4 -30 10
-3 5 -12 7 -19 4 -8 -3 -31 4 -52 15 -45 24 -60 26 -67 9 -4 -10 -6 -10 -6 0
-1 7 6 24 15 37 17 25 12 61 -6 50 -6 -3 -7 1 -4 9 3 9 1 16 -6 16 -6 0 -9 3
-7 8 3 4 -6 7 -19 7 -14 0 -24 -6 -24 -14 0 -11 -3 -11 -15 -1 -8 7 -15 19
-15 27 0 10 -6 13 -17 8 -15 -5 -16 -4 -5 6 9 10 15 10 24 1 7 -7 19 -12 27
-12 11 0 10 3 -4 14 -18 13 -18 13 1 24 11 7 13 12 6 12 -7 0 -10 5 -6 11 5 8
10 6 16 -5 5 -9 16 -16 24 -16 12 0 12 4 -3 24 -10 13 -20 22 -22 20 -5 -5
-36 37 -44 60 -6 16 -3 18 23 14 23 -3 27 -2 19 8 -6 7 -17 10 -25 7 -8 -3
-14 0 -14 6 0 6 9 11 19 11 11 0 22 4 25 8 2 4 -11 6 -31 4 -25 -3 -34 -1 -29
7 4 6 2 11 -3 11 -12 0 -10 -27 3 -48 6 -10 1 -11 -18 -6 -16 4 -26 2 -26 -5
0 -6 -4 -11 -10 -11 -18 0 -10 22 10 27 23 6 22 33 -4 62 -14 16 -23 18 -37
10 -13 -6 -19 -6 -19 1 0 5 -7 10 -16 10 -8 0 -12 4 -9 10 4 6 -1 7 -10 3 -14
-5 -11 -9 13 -25 23 -14 29 -24 24 -41 -8 -31 -29 -51 -35 -34 -4 9 -6 9 -6 0
-1 -7 10 -20 24 -29 14 -9 25 -21 25 -27 0 -5 -8 -3 -18 6 -10 10 -28 17 -39
17 -27 0 -36 11 -18 24 13 10 13 13 -5 24 -17 10 -20 10 -20 -3 0 -8 -7 -15
-15 -15 -9 0 -12 -6 -9 -15 4 -8 10 -12 15 -9 5 3 6 -2 2 -12 -5 -14 -8 -12
-22 10 -9 14 -19 26 -23 26 -10 0 -10 37 0 43 4 2 2 3 -4 1 -6 -1 -16 8 -23
22 -6 13 -17 24 -25 24 -17 0 -38 -24 -29 -33 12 -12 22 -7 17 8 -4 8 -2 15 3
15 8 0 19 -16 41 -63 2 -4 -8 -5 -22 -1 -20 5 -26 2 -26 -10 0 -18 -35 -22
-45 -6 -3 6 -14 10 -23 10 -14 0 -15 -2 -3 -9 12 -8 12 -12 2 -25 -7 -8 -18
-14 -24 -13 -6 1 -13 -6 -15 -15 -3 -14 1 -16 14 -11 16 6 17 5 4 -9 -8 -9
-16 -12 -18 -7 -2 5 -10 9 -18 9 -9 0 -14 10 -13 28 0 23 2 24 8 8 6 -15 10
-16 16 -7 8 14 -10 31 -32 31 -7 0 -13 7 -13 16 0 11 -5 14 -17 10 -15 -6 -15
-4 2 14 10 11 13 20 8 20 -6 0 -16 -7 -23 -15 -7 -8 -20 -15 -29 -15 -22 1
-55 27 -42 34 5 3 16 0 23 -8 12 -12 18 -11 39 5 19 14 20 19 7 19 -9 0 -19
-6 -22 -12 -5 -11 -7 -11 -12 0 -3 6 -12 12 -20 12 -8 0 -14 5 -14 11 0 6 9 9
20 6 11 -3 20 -1 20 5 0 5 -10 8 -22 6 -13 -2 -23 -10 -23 -18 0 -21 -12 -28
-41 -22 -22 4 -29 17 -25 49 1 7 -3 13 -9 13 -6 0 -8 -5 -5 -10 3 -5 1 -10 -4
-10 -6 0 -11 4 -11 9 0 5 -3 16 -6 25 -3 9 -1 16 6 16 6 0 8 -5 4 -11 -4 -7 0
-9 14 -5 17 6 21 2 24 -21 2 -15 6 -23 10 -18 4 6 0 25 -9 42 -14 30 -14 34 7
60 16 21 18 29 8 33 -17 7 -21 30 -5 30 13 0 42 39 30 41 -50 7 -62 5 -53 -6
14 -17 -13 -28 -29 -12 -6 6 -11 7 -11 1 0 -5 5 -15 10 -20 8 -8 6 -15 -6 -25
-9 -8 -19 -13 -21 -11 -1 1 -11 2 -20 2 -15 0 -16 -2 -3 -10 11 -7 7 -10 -17
-10 -18 0 -33 3 -32 8 1 15 58 52 64 42 3 -5 14 -10 23 -10 13 0 13 2 -4 15
-18 14 -17 17 40 70 32 30 62 52 68 49 5 -3 12 3 15 15 3 11 26 33 52 49 85
53 256 140 299 151 23 7 42 16 42 21 0 5 7 7 15 4 8 -4 15 -1 15 5 0 6 9 11
20 11 11 0 20 4 20 9 0 5 9 7 20 4 12 -3 20 0 20 6 0 7 -4 10 -9 6 -5 -3 -12
-1 -16 5 -9 15 -35 12 -35 -4 0 -7 -14 -16 -31 -20 -16 -3 -37 -13 -45 -21
-18 -17 -34 -20 -34 -5 0 6 -7 10 -15 10 -8 0 -15 -4 -15 -8 0 -5 -13 -7 -30
-6 -24 2 -30 -2 -30 -17 0 -12 -7 -19 -19 -19 -27 0 -72 -25 -63 -36 4 -4 0
-3 -9 4 -14 10 -18 10 -23 -3 -3 -8 -10 -15 -16 -15 -6 0 -19 -7 -28 -16 -15
-15 -16 -15 -23 2 -6 17 -7 18 -14 2 -4 -9 -5 -21 -2 -25 3 -4 -7 -9 -21 -10
-15 0 -28 -6 -30 -12 -2 -5 -9 -8 -16 -5 -7 3 -18 -7 -24 -21 -6 -14 -18 -25
-25 -25 -8 0 -26 -12 -41 -26 -14 -15 -26 -24 -26 -20 0 3 -9 -2 -20 -11 -11
-10 -20 -23 -20 -29 0 -12 -28 -29 -43 -25 -5 1 -6 -3 -2 -8 3 -6 -3 -18 -15
-28 -11 -10 -20 -24 -20 -31 0 -9 -6 -12 -16 -8 -9 4 -22 2 -29 -4 -9 -8 -11
-4 -7 15 2 14 8 28 13 31 14 8 10 24 -5 24 -8 0 -16 -8 -18 -17 -3 -14 -5 -15
-18 -2 -8 8 -22 14 -30 15 -8 1 -25 4 -37 8 -18 6 -23 3 -24 -11 0 -16 -1 -16
-9 2 -13 30 -12 45 3 39 10 -4 12 3 9 26 -3 24 -1 30 14 31 11 0 14 3 7 5 -8
4 -1 20 19 50 16 25 34 41 40 38 6 -4 8 -2 5 3 -15 25 143 144 231 175 174 61
237 72 452 75 113 2 303 6 423 8 171 4 217 3 217 -7 0 -10 2 -10 9 0 6 10 26
13 69 10 33 -1 58 0 55 5 -2 4 44 7 104 7 101 0 121 3 323 59 118 32 248 64
289 70 40 6 77 14 82 17 5 3 9 811 9 1860 l0 1854 -357 -2 c-197 0 -338 -4
-313 -7 44 -6 45 -7 53 -51 4 -25 6 -103 4 -175 -6 -181 -46 -334 -128 -497
-42 -82 -120 -199 -130 -193 -4 3 -8 203 -9 445 l-1 440 30 0 c17 0 45 9 63
20 l33 20 -4152 0 -4153 0 0 -429z m3172 390 l33 -29 0 -338 0 -339 -25 -3
c-14 -2 -29 -7 -33 -11 -6 -6 -57 -330 -57 -364 0 -4 9 -3 20 3 26 14 90 -5
90 -26 0 -9 5 -12 10 -9 6 3 10 2 10 -4 0 -5 -9 -13 -21 -16 -14 -5 -17 -10
-11 -18 6 -7 10 -102 11 -214 0 -111 1 -206 2 -210 1 -4 0 -12 -1 -18 -1 -5
-3 -227 -3 -493 -2 -464 -1 -482 17 -488 10 -3 60 -10 110 -14 50 -4 73 -8 51
-9 -22 -1 -62 -8 -90 -17 -85 -27 -142 -27 -182 1 l-36 24 34 4 c20 2 9 4 -26
5 -42 0 -54 -2 -40 -8 18 -8 18 -9 -5 -9 -14 -1 -36 -7 -50 -14 -20 -10 -39
-10 -95 0 -38 6 -84 12 -101 12 -31 1 -31 1 -29 54 1 28 5 78 10 110 5 40 4
57 -4 57 -6 0 -11 7 -11 16 0 8 5 12 10 9 7 -4 9 10 8 39 -2 25 -6 46 -10 46
-3 0 -4 28 -1 63 2 34 4 78 5 97 0 19 5 38 12 43 8 5 7 11 -4 20 -17 14 -26
173 -10 192 6 7 6 24 0 46 -14 46 -13 102 2 117 9 9 9 12 -1 12 -11 0 -12 13
-8 56 3 31 1 67 -4 81 -5 14 -10 91 -10 171 -2 141 -8 181 -36 210 -7 7 -13
19 -14 25 -3 54 3 774 7 817 2 30 4 101 4 158 0 112 14 179 39 185 9 3 102 5
208 6 l192 1 33 -29z m213 -131 c3 -5 13 -6 21 -3 9 3 20 0 25 -8 4 -8 12 -14
17 -14 8 0 54 -41 131 -115 14 -13 31 -25 36 -25 6 0 24 -12 40 -27 16 -16 34
-28 40 -28 6 0 32 -20 59 -45 27 -25 62 -50 78 -57 15 -7 28 -19 28 -25 0 -7
3 -13 8 -13 4 0 20 -11 36 -25 16 -14 34 -25 40 -25 7 0 18 -9 26 -20 8 -11
20 -20 27 -20 7 0 13 -4 13 -10 0 -5 7 -10 15 -10 8 0 15 -7 15 -15 0 -8 7
-15 15 -15 7 0 19 -8 24 -17 9 -16 12 -16 21 -3 9 13 10 13 8 -2 -2 -10 11
-28 31 -42 19 -15 31 -26 25 -26 -5 0 4 -7 20 -15 15 -8 36 -15 45 -15 20 0
82 -66 78 -83 -1 -7 6 -11 16 -11 9 1 17 -4 17 -11 0 -8 6 -20 13 -27 16 -17
48 -108 42 -118 -5 -7 -8 -1163 -4 -1186 1 -5 1 -140 0 -301 l-1 -291 -61 -1
c-34 0 -64 -3 -67 -6 -6 -6 -7 -19 -11 -92 -1 -28 -17 -30 -24 -3 -4 17 -14
20 -72 20 -58 0 -68 -3 -72 -20 -5 -17 -14 -20 -67 -20 l-62 0 -2 468 c-1 257
1 479 4 495 l6 27 65 -6 65 -7 -6 49 c-3 27 -11 116 -17 199 -5 82 -15 155
-21 162 -6 7 -28 13 -49 13 -24 0 -40 5 -41 13 0 6 -2 58 -2 115 -1 83 -5 105
-19 120 -17 16 -18 11 -17 -118 0 -74 1 -433 0 -798 0 -364 1 -666 1 -670 1
-4 1 -19 0 -34 -1 -24 -5 -28 -30 -28 l-29 0 -3 126 c-4 122 -5 126 -31 149
-41 35 -111 45 -317 45 l-188 0 -3 173 c-4 241 -3 737 1 742 2 2 2 75 -1 162
-3 87 -1 264 3 393 11 333 11 333 4 455 -4 61 -9 182 -13 270 -7 188 -7 196
-18 213 -6 10 -1 11 18 6 27 -6 36 8 14 22 -8 5 -6 10 8 15 27 11 42 11 49 -1z
m-110 -780 c3 -6 -1 -7 -9 -4 -18 7 -21 14 -7 14 6 0 13 -4 16 -10z m1305
-127 c8 -6 28 -13 45 -15 24 -2 35 -12 54 -48 14 -25 31 -49 38 -53 7 -4 13
-16 13 -25 0 -15 2 -15 10 -2 8 12 10 9 10 -13 0 -15 8 -40 17 -54 16 -24 18
-61 16 -405 -1 -208 -5 -383 -8 -388 -3 -6 -1 -10 5 -10 6 0 9 -4 6 -8 -3 -5
-7 -21 -10 -37 -3 -16 -21 -41 -41 -57 l-35 -29 0 -387 c-1 -266 -4 -382 -11
-370 -5 10 -20 18 -32 18 -12 0 -57 3 -100 8 -80 8 -103 21 -91 52 3 8 5 152
3 320 -3 287 -2 510 2 697 1 44 -1 85 -4 90 -3 5 -2 35 2 66 4 31 5 57 2 57
-4 0 -5 71 -4 158 2 108 -1 180 -12 232 -20 105 -22 180 -4 191 8 4 28 17 44
27 31 19 45 17 85 -15z m40 7 c0 -5 -4 -10 -10 -10 -5 0 -10 5 -10 10 0 6 5
10 10 10 6 0 10 -4 10 -10z m1075 -672 c4 -79 6 -171 4 -205 -2 -33 0 -59 4
-56 4 3 7 -26 5 -64 l-3 -68 -313 -9 c-176 -4 -317 -4 -322 0 -4 5 -11 129
-15 277 l-7 267 320 0 320 0 7 -142z m158 -335 c-7 -2 -19 -2 -25 0 -7 3 -2 5
12 5 14 0 19 -2 13 -5z m74 1 c-3 -3 -12 -4 -19 -1 -8 3 -5 6 6 6 11 1 17 -2
13 -5z m140 0 c-3 -3 -12 -4 -19 -1 -8 3 -5 6 6 6 11 1 17 -2 13 -5z m-4637
-221 c-8 -4 -21 -12 -29 -20 -16 -17 -26 -10 -18 12 4 9 18 15 34 14 16 0 22
-3 13 -6z m348 0 c-10 -2 -26 -2 -35 0 -10 3 -2 5 17 5 19 0 27 -2 18 -5z
m481 -19 c8 -7 -6 -15 -28 -17 -11 -1 -21 -4 -21 -8 0 -5 -23 -5 -55 0 -5 1 6
10 25 20 30 16 65 18 79 5z m365 -4 c22 -8 26 -15 25 -47 -1 -21 -3 -30 -6
-20 -4 15 -12 18 -34 15 -16 -3 -29 -1 -29 3 0 7 -60 19 -95 19 -34 0 -66 10
-60 19 3 5 -1 12 -7 14 -24 10 181 7 206 -3z m-1614 -325 c-7 -9 -15 -13 -19
-10 -3 3 1 10 9 15 21 14 24 12 10 -5z m116 0 c-11 -8 -22 -12 -25 -9 -6 6 19
24 34 24 6 -1 1 -7 -9 -15z m354 10 c0 -3 -12 -17 -27 -30 l-28 -23 -1 -174
c0 -240 -1 -255 -16 -239 -10 9 -13 63 -13 199 0 160 -2 187 -15 187 -12 0
-15 -13 -15 -59 0 -36 -5 -61 -12 -63 -15 -5 -26 62 -19 121 4 36 3 46 -9 46
-9 0 -15 -10 -15 -25 0 -14 -5 -25 -11 -25 -7 0 -9 -11 -6 -30 4 -16 3 -67 -1
-112 l-7 -83 -5 132 c-5 121 -11 155 -26 141 -3 -4 -7 -66 -9 -140 -5 -162 -3
-148 -14 -148 -19 0 -26 47 -26 170 0 121 -1 125 -22 128 -14 2 -20 8 -16 18
4 11 34 14 159 14 85 0 154 -2 154 -5z m2093 -2 c-23 -2 -64 -2 -90 0 -26 2
-7 3 42 3 50 0 71 -1 48 -3z m147 -3 c0 -5 -2 -10 -4 -10 -3 0 -8 5 -11 10 -3
6 -1 10 4 10 6 0 11 -4 11 -10z m-1894 -15 c17 -14 18 -15 0 -9 -10 4 -21 1
-26 -6 -9 -14 -62 -16 -82 -3 -7 4 -29 13 -48 19 -32 11 -28 12 51 13 62 1 90
-3 105 -14z m-1076 -9 c0 -3 -4 -8 -10 -11 -5 -3 -10 -1 -10 4 0 6 5 11 10 11
6 0 10 -2 10 -4z m627 -78 c-3 -8 -6 -5 -6 6 -1 11 2 17 5 13 3 -3 4 -12 1
-19z m383 -318 c3 -270 4 -262 -21 -258 -20 3 -21 10 -24 168 -6 219 -5 271 1
294 6 18 7 18 24 0 16 -17 19 -40 20 -204z m1397 143 c-3 -10 -5 -4 -5 12 0
17 2 24 5 18 2 -7 2 -21 0 -30z m-2420 -80 c-2 -21 -4 -4 -4 37 0 41 2 58 4
38 2 -21 2 -55 0 -75z m628 5 c-2 -44 -7 -83 -10 -86 -3 -3 -5 4 -5 16 0 12
-4 22 -10 22 -13 0 -13 54 1 101 18 60 29 36 24 -53z m-72 12 c-3 -11 -7 -20
-9 -20 -2 0 -4 9 -4 20 0 11 4 20 9 20 5 0 7 -9 4 -20z m3409 -322 c2 -158 0
-284 -4 -280 -4 4 -8 136 -10 294 -2 158 0 284 4 280 4 -4 8 -136 10 -294z
m-75 256 c-3 -3 -12 -4 -19 -1 -8 3 -5 6 6 6 11 1 17 -2 13 -5z m-537 -203 l0
-170 -22 4 c-89 17 -90 18 -114 141 -13 67 -24 94 -42 111 -14 13 -31 23 -38
23 -9 0 -14 11 -14 30 l0 30 115 0 115 0 0 -169z m300 -13 c-1 -101 -4 -193
-7 -204 -4 -18 -12 -22 -50 -22 -24 -1 -63 6 -86 14 -23 9 -55 19 -72 23 l-30
7 -3 182 -2 182 125 0 126 0 -1 -182z m250 -74 c0 -240 -1 -256 -17 -251 -10
3 -42 12 -72 21 -29 8 -61 23 -71 33 -17 19 -34 113 -21 113 4 0 7 77 7 170
l-1 170 87 0 88 0 0 -256z m-3903 154 c-2 -13 -4 -3 -4 22 0 25 2 35 4 23 2
-13 2 -33 0 -45z m502 -28 c15 -49 14 -50 -9 -50 -24 0 -40 35 -37 78 2 24 5
27 18 19 9 -6 22 -27 28 -47z m1568 -176 c-3 -3 -12 -4 -19 -1 -8 3 -5 6 6 6
11 1 17 -2 13 -5z m-1377 -195 c0 -80 -4 -129 -10 -129 -7 0 -9 48 -8 134 2
74 6 132 10 130 5 -3 8 -63 8 -135z m4590 32 c0 -9 -150 -91 -166 -91 -13 0
93 70 129 85 39 17 37 17 37 6z m-1626 -213 c9 -12 16 -33 16 -45 0 -13 5 -23
11 -23 8 0 10 -12 6 -35 -4 -26 -2 -35 9 -35 8 0 14 -4 14 -9 0 -12 -59 -19
-179 -20 -52 -1 -97 -4 -100 -7 -3 -3 14 -5 39 -4 25 1 50 1 55 1 6 -1 92 -1
193 -1 l182 1 0 -38 c1 -21 3 -80 6 -130 l6 -93 -256 0 -256 0 0 130 c0 80 4
130 10 130 6 0 10 5 10 11 0 5 -4 7 -10 4 -14 -9 -13 68 2 83 9 9 9 12 0 12
-8 0 -12 17 -12 45 l0 45 119 0 c113 0 121 -1 135 -22z m130 10 c-6 -10 -4
-10 8 0 13 10 17 10 22 -4 10 -27 7 -44 -9 -44 -8 0 -15 6 -16 13 0 6 -4 3 -9
-8 -8 -18 -9 -18 -9 -2 -1 10 -5 15 -11 12 -5 -3 -10 1 -10 10 0 10 5 13 13 9
8 -5 8 -2 -2 9 -12 15 -11 17 8 17 15 0 20 -4 15 -12z m-589 -10 c19 -8 31 -8
48 0 12 6 41 10 65 9 l42 -2 0 -87 0 -88 -27 -1 -28 -2 28 -4 27 -4 0 -130 0
-129 -170 0 -170 0 0 114 c0 63 3 121 6 130 4 11 19 16 44 16 21 0 42 6 47 13
5 6 10 45 11 86 2 91 17 106 77 79z m-2515 -175 c0 -87 -3 -123 -10 -113 -15
23 -9 240 6 240 2 0 4 -57 4 -127z m340 36 c0 -11 -4 -19 -10 -19 -5 0 -10 6
-10 14 0 8 -3 23 -7 33 -6 16 -5 16 10 4 9 -7 17 -22 17 -32z m2850 6 c0 -7 6
-16 13 -18 6 -3 2 -6 -10 -6 -18 -1 -23 4 -23 25 0 14 4 23 10 19 6 -3 10 -12
10 -20z m-3814 -115 c2 -49 -1 -92 -7 -95 -5 -4 -9 35 -9 96 0 125 12 124 16
-1z m951 58 c-3 -8 -6 -5 -6 6 -1 11 2 17 5 13 3 -3 4 -12 1 -19z m1943 -118
l0 -130 -50 0 -50 0 0 124 0 125 38 4 c20 2 43 4 50 5 9 2 12 -30 12 -128z
m-3542 44 c-3 -14 -5 -12 -10 9 -3 19 -2 25 4 19 6 -6 8 -18 6 -28z m4727 26
c-3 -5 6 -12 20 -16 33 -8 32 -24 -2 -24 -20 0 -24 3 -14 9 11 7 9 10 -8 16
-24 7 -28 25 -5 25 8 0 12 -4 9 -10z m-3125 -41 c0 -17 -4 -28 -10 -24 -5 3
-10 17 -10 31 0 13 5 24 10 24 6 0 10 -14 10 -31z m3207 5 c-3 -3 -12 -4 -19
-1 -8 3 -5 6 6 6 11 1 17 -2 13 -5z m-43 -34 c-10 -4 -25 -5 -32 -2 -22 8 6
21 31 14 20 -5 20 -6 1 -12z m-2334 -58 c0 -90 -11 -104 -70 -90 -25 5 -61 11
-80 13 -19 2 -43 6 -54 10 -10 5 -33 3 -51 -4 -18 -6 -40 -9 -49 -5 -9 3 -52
1 -96 -5 -199 -28 -239 -32 -301 -35 -36 -1 -71 -6 -77 -10 -9 -5 -12 8 -12
47 0 65 -17 58 215 82 131 14 547 61 568 64 4 0 7 -30 7 -67z m-2430 -19 c0
-38 -5 -75 -10 -83 -7 -10 -9 10 -8 67 4 99 18 112 18 16z m1600 57 c0 -5 -2
-10 -4 -10 -3 0 -8 5 -11 10 -3 6 -1 10 4 10 6 0 11 -4 11 -10z m-963 -152
c-2 -18 -4 -4 -4 32 0 36 2 50 4 33 2 -18 2 -48 0 -65z m2903 -19 l0 -40 -47
3 c-48 3 -48 3 -51 41 l-3 37 50 0 51 0 0 -41z m-1475 -8 c-11 -10 -37 -14
-75 -11 -23 1 -23 2 -5 10 27 12 92 12 80 1z m211 -6 c18 -14 18 -14 -6 -15
-14 0 -36 -3 -49 -7 -17 -4 -22 -3 -17 5 4 7 19 12 34 13 24 0 25 1 7 9 -14 6
-16 9 -4 9 8 1 24 -6 35 -14z m-1639 -37 c-3 -7 -5 -2 -5 12 0 14 2 19 5 13 2
-7 2 -19 0 -25z m1700 26 c-3 -3 -12 -4 -19 -1 -8 3 -5 6 6 6 11 1 17 -2 13
-5z m93 -4 c0 -5 -10 -10 -22 -9 -22 0 -22 1 -3 9 11 5 21 9 23 9 1 1 2 -3 2
-9z m-870 -24 c0 -3 -4 -8 -10 -11 -5 -3 -10 -1 -10 4 0 6 5 11 10 11 6 0 10
-2 10 -4z m115 -6 c-28 -12 -37 -12 -30 0 3 6 16 10 28 9 21 0 21 -1 2 -9z
m110 -11 c-57 -18 -53 -19 40 -5 37 5 36 5 -10 -9 -61 -19 -111 -32 -146 -39
-23 -5 -26 -2 -26 19 0 21 6 25 56 35 31 6 61 13 66 15 6 2 26 3 45 3 31 0 29
-2 -25 -19z m492 15 c-3 -3 -12 -4 -19 -1 -8 3 -5 6 6 6 11 1 17 -2 13 -5z
m153 -10 c0 -12 -7 -14 -32 -9 -52 11 -57 25 -10 25 32 0 42 -4 42 -16z m-915
-4 c-11 -5 -27 -9 -35 -9 -13 -1 -13 0 0 9 8 5 24 9 35 9 l20 0 -20 -9z m475
-13 c8 -3 24 -7 35 -9 27 -4 -242 -251 -307 -281 -27 -12 -48 -29 -48 -37 0
-8 -7 -24 -15 -34 -13 -17 -15 -18 -15 -3 0 9 5 17 10 17 6 0 10 5 10 11 0 5
-4 7 -10 4 -6 -4 -10 37 -10 114 0 114 1 121 20 121 11 0 20 5 20 10 0 6 -6
10 -12 8 -7 -2 -15 2 -18 7 -6 12 264 85 300 81 14 -2 32 -6 40 -9z m4547 -9
c-3 -8 -6 -5 -6 6 -1 11 2 17 5 13 3 -3 4 -12 1 -19z m73 -3 c0 -2 3 -12 7
-22 5 -14 1 -12 -20 7 -32 30 -35 45 -7 30 11 -6 20 -12 20 -15z m-5100 1
c-14 -8 -45 -16 -70 -19 l-45 -6 55 19 c64 22 96 25 60 6z m-797 -13 c-7 -2
-19 -2 -25 0 -7 3 -2 5 12 5 14 0 19 -2 13 -5z m1462 -18 c33 -10 74 -20 90
-25 17 -4 41 -10 55 -14 24 -8 24 -7 6 7 -19 14 -18 15 12 21 18 3 47 8 65 11
27 4 29 4 10 -5 -25 -10 -32 -26 -8 -16 8 3 15 1 15 -4 0 -6 -7 -10 -15 -10
-7 0 -18 -6 -22 -13 -11 -18 -102 -49 -302 -102 -30 -8 -57 -18 -60 -22 -3 -5
-10 -8 -16 -8 -31 -1 -121 -18 -130 -25 -18 -13 -75 -29 -75 -21 0 5 59 63
132 129 145 134 131 128 243 97z m38 18 c-7 -2 -19 -2 -25 0 -7 3 -2 5 12 5
14 0 19 -2 13 -5z m4331 -26 c3 4 6 1 6 -5 0 -7 -4 -12 -9 -12 -5 0 -16 -2
-24 -5 -10 -4 -14 3 -14 26 0 32 0 32 17 11 10 -12 20 -18 24 -15z m-5167 7
c-3 -3 -12 -4 -19 -1 -8 3 -5 6 6 6 11 1 17 -2 13 -5z m-670 -10 c-3 -3 -12
-4 -19 -1 -8 3 -5 6 6 6 11 1 17 -2 13 -5z m470 -10 c-3 -3 -12 -4 -19 -1 -8
3 -5 6 6 6 11 1 17 -2 13 -5z m-122 -28 c-80 -20 -119 -27 -112 -20 8 8 115
32 142 32 11 0 -2 -6 -30 -12z m5755 6 c0 -2 -5 -9 -12 -16 -10 -11 -15 -11
-25 0 -19 18 -16 22 12 20 14 0 25 -2 25 -4z m-50 -37 c0 -8 -7 -15 -15 -15
-26 0 -18 20 13 29 1 1 2 -6 2 -14z m-5855 -5 c-27 -12 -43 -12 -25 0 8 5 22
9 30 9 10 0 8 -3 -5 -9z m5795 -10 c0 -5 -5 -10 -11 -10 -5 0 -7 5 -4 10 3 6
8 10 11 10 2 0 4 -4 4 -10z m-21 -66 c5 3 7 -3 4 -14 -6 -22 -9 -23 -38 -10
-11 5 -15 9 -8 9 8 1 10 8 6 19 -6 15 -5 15 10 4 9 -8 20 -11 26 -8z m224 -4
c3 -10 0 -22 -7 -25 -8 -3 -8 -7 2 -11 6 -3 10 -10 6 -15 -8 -14 -24 0 -24 21
0 10 -6 21 -12 23 -7 3 -4 6 7 7 l20 1 -20 9 c-19 8 -19 9 1 9 13 1 24 -7 27
-19z m597 -24 c0 -17 -28 -41 -37 -32 -4 4 -1 11 7 16 8 6 11 10 7 10 -11 0 2
20 14 20 5 0 9 -6 9 -14z m-631 -35 c-2 -23 -2 -24 -6 -3 -2 12 -9 20 -14 17
-5 -4 -9 1 -9 9 0 10 6 13 15 10 9 -4 14 -17 14 -33z m-214 20 c10 -17 -11
-21 -31 -6 -18 14 -18 14 3 15 12 0 24 -4 28 -9z m405 -47 c13 -7 26 -18 28
-24 3 -8 -4 -7 -19 3 -13 8 -41 20 -61 27 -21 6 -38 16 -38 21 0 5 -7 9 -16 9
-8 0 -12 4 -9 10 4 6 22 1 48 -12 23 -12 53 -27 67 -34z m216 1 c-3 -9 1 -15
11 -15 8 0 24 -9 34 -21 9 -11 21 -20 25 -19 5 1 10 -4 13 -11 2 -7 -1 -9 -9
-4 -10 6 -12 4 -7 -8 4 -11 2 -14 -9 -10 -10 4 -12 0 -8 -11 8 -21 1 -20 -20
3 -16 18 -16 19 0 17 9 0 19 5 21 12 4 10 -22 18 -49 13 -5 0 -8 5 -8 13 0 8
-7 16 -15 20 -18 7 -9 36 12 36 9 0 13 -6 9 -15z m-276 -17 c0 -6 -6 -5 -15 2
-8 7 -15 14 -15 16 0 2 7 1 15 -2 8 -4 15 -11 15 -16z m559 -20 c29 -66 31
-76 15 -82 -15 -6 -54 13 -54 26 0 12 7 10 25 -8 9 -9 19 -13 23 -9 4 4 -3 14
-15 22 -13 9 -23 23 -22 32 0 12 2 11 9 -4 8 -19 9 -19 9 3 1 12 -5 25 -12 28
-8 3 -14 11 -14 19 0 28 17 15 36 -27z m-941 12 c-15 -23 -28 -26 -28 -6 0 8
8 17 18 19 9 3 18 5 20 6 1 0 -3 -8 -10 -19z m607 10 c3 -5 1 -10 -5 -10 -7 0
-10 -7 -6 -15 6 -17 -9 -21 -19 -5 -8 14 1 40 14 40 5 0 13 -4 16 -10z m185
-19 c9 -2 -25 -21 -37 -21 -7 0 -13 6 -13 13 0 12 17 14 50 8z m-3602 -32 c-3
-8 -7 -3 -11 10 -4 17 -3 21 5 13 5 -5 8 -16 6 -23z m171 15 c10 -9 -35 -3
-49 6 -11 8 -7 9 15 4 17 -4 32 -8 34 -10z m611 2 c0 -8 -4 -17 -9 -21 -6 -3
-9 4 -8 15 1 23 17 28 17 6z m2660 10 c0 -3 -4 -8 -10 -11 -5 -3 -10 -1 -10 4
0 6 5 11 10 11 6 0 10 -2 10 -4z m-3464 -34 c1 -12 -3 -19 -7 -16 -5 3 -9 -3
-10 -13 0 -15 -2 -15 -11 4 -12 26 -4 57 15 51 6 -3 13 -14 13 -26z m528 17
c-6 -11 -54 -12 -54 -1 0 4 13 7 30 8 16 1 27 -3 24 -7z m226 -10 c0 -3 -11
-9 -25 -11 -25 -5 -35 7 -12 15 19 6 37 4 37 -4z m2045 -19 c-9 -16 -17 -30
-19 -30 -3 0 1 14 7 30 6 17 15 30 19 30 5 0 2 -13 -7 -30z m838 16 c4 -10 0
-12 -14 -9 -10 3 -16 9 -13 14 8 13 21 11 27 -5z m37 -8 c0 -6 -6 -5 -15 2 -8
7 -15 14 -15 16 0 2 7 1 15 -2 8 -4 15 -11 15 -16z m-3547 -8 c-3 -11 -7 -20
-9 -20 -2 0 -4 9 -4 20 0 11 4 20 9 20 5 0 7 -9 4 -20z m1111 5 c3 -8 2 -15
-3 -15 -5 0 -14 7 -21 15 -10 12 -10 15 3 15 8 0 17 -7 21 -15z m2384 -24 c15
-9 14 -10 -5 -11 -14 0 -23 6 -23 16 0 8 -4 12 -10 9 -6 -4 -7 1 -3 11 5 15 7
15 15 0 5 -8 16 -20 26 -25z m-3111 23 c-3 -3 -12 -4 -19 -1 -8 3 -5 6 6 6 11
1 17 -2 13 -5z m2949 -21 c-6 -6 -36 9 -36 18 0 5 9 4 20 -3 10 -7 18 -14 16
-15z m-2593 10 c-7 -2 -21 -2 -30 0 -10 3 -4 5 12 5 17 0 24 -2 18 -5z m60 0
c-7 -2 -19 -2 -25 0 -7 3 -2 5 12 5 14 0 19 -2 13 -5z m80 0 c-7 -2 -21 -2
-30 0 -10 3 -4 5 12 5 17 0 24 -2 18 -5z m307 3 c0 -2 -7 -6 -15 -10 -8 -3
-15 -1 -15 4 0 6 7 10 15 10 8 0 15 -2 15 -4z m-803 -22 c-3 -3 -12 -4 -19 -1
-8 3 -5 6 6 6 11 1 17 -2 13 -5z m340 0 c-3 -3 -12 -4 -19 -1 -8 3 -5 6 6 6
11 1 17 -2 13 -5z m50 0 c-3 -3 -12 -4 -19 -1 -8 3 -5 6 6 6 11 1 17 -2 13 -5z
m80 0 c-3 -3 -12 -4 -19 -1 -8 3 -5 6 6 6 11 1 17 -2 13 -5z m46 -1 c-7 -2
-19 -2 -25 0 -7 3 -2 5 12 5 14 0 19 -2 13 -5z m364 1 c-3 -3 -12 -4 -19 -1
-8 3 -5 6 6 6 11 1 17 -2 13 -5z m2179 -24 c-1 -16 -4 -30 -8 -30 -10 0 -10
22 -2 44 9 23 11 20 10 -14z m-3609 -12 c-3 -7 -5 -2 -5 12 0 14 2 19 5 13 2
-7 2 -19 0 -25z m3788 22 c3 -6 -1 -7 -9 -4 -18 7 -21 14 -7 14 6 0 13 -4 16
-10z m-2922 -7 c-7 -2 -19 -2 -25 0 -7 3 -2 5 12 5 14 0 19 -2 13 -5z m79 -17
c8 -15 6 -17 -13 -14 -13 2 -25 11 -27 20 -4 22 27 17 40 -6z m215 18 c-3 -3
-12 -4 -19 -1 -8 3 -5 6 6 6 11 1 17 -2 13 -5z m196 -1 c-7 -2 -21 -2 -30 0
-10 3 -4 5 12 5 17 0 24 -2 18 -5z m80 0 c-7 -2 -21 -2 -30 0 -10 3 -4 5 12 5
17 0 24 -2 18 -5z m2127 -3 c0 -5 -4 -10 -10 -10 -5 0 -10 5 -10 10 0 6 5 10
10 10 6 0 10 -4 10 -10z m190 0 c0 -5 -4 -10 -10 -10 -5 0 -10 5 -10 10 0 6 5
10 10 10 6 0 10 -4 10 -10z m-263 -22 c-3 -8 -6 -5 -6 6 -1 11 2 17 5 13 3 -3
4 -12 1 -19z m-2630 6 c-3 -3 -12 -4 -19 -1 -8 3 -5 6 6 6 11 1 17 -2 13 -5z
m173 -1 c-19 -3 -40 -9 -46 -14 -11 -9 -24 -3 -24 11 0 4 24 7 53 7 36 0 41
-1 17 -4z m268 -5 c-3 -8 -33 -15 -79 -19 -47 -3 -59 -6 -31 -7 23 -1 42 -6
42 -12 0 -18 -71 -11 -185 20 -24 7 -20 8 25 7 109 -3 217 5 190 13 -23 8 -23
8 8 9 23 1 32 -3 30 -11z m57 -9 c-3 -4 11 -6 32 -4 25 3 33 2 24 -4 -8 -5
-20 -7 -28 -4 -7 3 -13 0 -13 -5 0 -6 10 -13 23 -15 12 -2 -15 -5 -60 -6 -55
-1 -83 3 -83 10 0 7 10 9 27 5 17 -5 29 -3 35 6 8 10 11 10 15 1 2 -7 10 -13
16 -13 6 0 0 11 -12 24 l-22 23 25 -4 c14 -3 23 -9 21 -14z m83 14 c-10 -2
-28 -2 -40 0 -13 2 -5 4 17 4 22 1 32 -1 23 -4z m-821 -35 c-3 -8 -6 -5 -6 6
-1 11 2 17 5 13 3 -3 4 -12 1 -19z m100 16 c-3 -3 -12 -4 -19 -1 -8 3 -5 6 6
6 11 1 17 -2 13 -5z m75 -1 c-12 -2 -20 -9 -17 -14 4 -5 -1 -9 -9 -9 -10 0
-13 6 -10 15 4 9 17 14 33 14 23 -2 24 -2 3 -6z m55 1 c-3 -3 -12 -4 -19 -1
-8 3 -5 6 6 6 11 1 17 -2 13 -5z m-160 -44 c2 -11 -2 -20 -7 -20 -6 0 -10 12
-10 27 0 29 12 24 17 -7z m170 24 c-3 -3 -12 -4 -19 -1 -8 3 -5 6 6 6 11 1 17
-2 13 -5z m193 -4 c0 -5 -12 -10 -26 -10 -14 0 -23 4 -19 10 3 6 15 10 26 10
10 0 19 -4 19 -10z m430 -2 c0 -5 -13 -8 -30 -8 -16 0 -30 4 -30 9 0 4 13 8
30 7 16 -1 30 -4 30 -8z m2342 0 c34 -19 48 -35 40 -43 -4 -5 3 -6 15 -3 19 5
20 4 10 -13 -7 -11 -13 -15 -15 -9 -2 5 -10 10 -18 10 -8 0 -14 9 -14 19 0 19
-25 35 -39 26 -4 -2 -8 2 -8 10 0 18 2 18 29 3z m-2327 -37 c-4 -17 -11 -31
-16 -31 -6 0 -8 4 -4 9 7 12 -25 22 -100 32 -54 7 -51 7 28 5 73 -3 87 -1 87
12 0 8 3 13 6 9 3 -3 3 -19 -1 -36z m-187 14 c3 -3 -73 -4 -169 -3 -96 0 -154
4 -129 7 51 7 291 4 298 -4z m-370 -2 c-10 -2 -28 -2 -40 0 -13 2 -5 4 17 4
22 1 32 -1 23 -4z m2885 -17 c4 -10 1 -13 -8 -9 -8 3 -12 9 -9 14 7 12 11 11
17 -5z m-2428 -6 c3 -5 20 -14 38 -19 27 -8 21 -9 -40 -10 -43 -1 -73 3 -73 9
0 6 -15 10 -32 10 -18 0 -40 5 -48 10 -10 7 10 10 67 10 45 0 85 -4 88 -10z
m62 -6 c-3 -3 -12 -4 -19 -1 -8 3 -5 6 6 6 11 1 17 -2 13 -5z m2390 -30 c-3
-3 -12 -4 -19 -1 -8 3 -5 6 6 6 11 1 17 -2 13 -5z m278 -14 c3 -5 -3 -10 -15
-10 -12 0 -18 5 -15 10 3 6 10 10 15 10 5 0 12 -4 15 -10z m-170 -29 c3 -5 1
-12 -5 -16 -5 -3 -10 1 -10 9 0 18 6 21 15 7z m141 -35 c10 -8 16 -17 13 -20
-3 -4 -17 2 -30 13 -27 23 -13 28 17 7z m72 -4 c8 -6 2 -9 -18 -9 -20 0 -26 3
-18 9 7 4 15 8 18 8 3 0 11 -4 18 -8z m-178 -22 c0 -5 -2 -10 -4 -10 -3 0 -8
5 -11 10 -3 6 -1 10 4 10 6 0 11 -4 11 -10z m230 -20 c5 0 7 7 4 15 -5 11 -2
13 10 9 19 -7 22 -24 4 -24 -9 0 -9 -3 0 -12 15 -15 16 -38 2 -38 -5 0 -10 9
-10 20 0 13 -7 20 -19 20 -15 0 -18 5 -13 23 5 18 7 19 10 5 2 -10 7 -18 12
-18z m-52 13 c-10 -2 -26 -2 -35 0 -10 3 -2 5 17 5 19 0 27 -2 18 -5z m-123
-13 c4 -6 -6 -10 -22 -9 -25 0 -26 1 -8 9 11 5 21 9 22 9 1 1 5 -3 8 -9z m128
-7 c-7 -2 -13 -12 -13 -21 0 -14 -2 -15 -9 -2 -12 18 -5 30 17 29 11 0 12 -3
5 -6z m-57 -18 c-1 -8 -5 -17 -8 -21 -5 -4 -4 16 1 34 3 9 9 -1 7 -13z m99
-33 c-6 -7 -45 9 -45 18 0 4 11 3 24 -3 14 -7 23 -13 21 -15z m35 -12 c0 -5
-5 -10 -11 -10 -5 0 -7 -5 -4 -11 4 -6 1 -10 -6 -8 -27 3 -40 -1 -33 -12 3 -6
15 -9 25 -6 10 3 17 0 16 -5 -1 -6 3 -12 10 -15 8 -3 11 3 8 16 -4 24 19 35
36 15 6 -8 17 -14 23 -13 26 3 35 -2 33 -20 -1 -15 -4 -17 -14 -9 -7 5 -10 15
-6 21 3 6 1 7 -5 3 -7 -4 -12 -15 -12 -24 0 -13 -2 -13 -15 4 -14 17 -16 18
-28 3 -11 -15 -17 -13 -65 17 -28 19 -52 39 -52 46 0 8 5 5 11 -4 12 -21 30
-24 27 -5 -2 7 6 11 20 9 12 -2 22 2 22 7 0 6 5 11 10 11 6 0 10 -4 10 -10z
m-55 -100 c-3 -5 -1 -10 4 -10 6 0 11 5 11 10 0 19 16 10 17 -9 1 -15 -4 -19
-19 -16 -11 3 -23 6 -25 9 -6 5 5 26 13 26 3 0 2 -4 -1 -10z m111 -18 c-4 -3
-14 2 -24 12 -16 18 -16 18 6 6 13 -6 21 -14 18 -18z m-151 8 c3 -6 -1 -7 -9
-4 -18 7 -21 14 -7 14 6 0 13 -4 16 -10z m192 -7 c0 -9 -4 -10 -14 -2 -7 6
-13 12 -13 14 0 1 6 2 13 2 8 0 14 -6 14 -14z m265 -61 c9 -8 22 -11 27 -7 16
9 13 -1 -5 -20 -13 -12 -14 -19 -4 -30 7 -8 9 -15 4 -15 -5 0 5 -7 22 -16 24
-12 30 -20 27 -38 -5 -24 -33 -32 -33 -9 0 8 -5 11 -10 8 -13 -8 -50 3 -50 15
0 5 7 6 17 3 11 -4 14 -3 9 6 -4 6 -3 18 4 26 17 20 -3 26 -34 9 -35 -17 -33
-17 -40 2 -3 8 -2 12 4 9 13 -8 13 1 0 26 -7 13 -7 19 0 19 5 0 10 -6 10 -13
0 -8 7 -14 15 -14 18 0 18 0 3 32 -6 14 -18 25 -27 25 -24 1 -55 27 -39 33 13
4 67 -23 100 -51z m-165 42 c-3 -3 -12 -4 -19 -1 -8 3 -5 6 6 6 11 1 17 -2 13
-5z m-25 -18 c10 -7 15 -16 11 -19 -3 -4 -12 -2 -20 4 -10 9 -17 8 -28 -1 -18
-15 -20 -5 -2 15 15 18 18 18 39 1z m-108 -11 c-4 -8 -11 -12 -16 -9 -6 4 -5
10 3 15 19 12 19 11 13 -6z m204 3 c7 -7 12 -25 12 -42 0 -28 0 -29 -20 -11
-11 10 -20 13 -20 7 0 -6 -7 -9 -15 -6 -11 5 -12 9 -2 19 8 9 16 10 25 3 16
-14 26 -4 18 18 -3 9 -12 14 -19 11 -8 -3 -20 -1 -28 4 -10 6 -7 9 12 9 14 0
30 -5 37 -12z m-318 -18 c0 -5 -2 -10 -4 -10 -3 0 -8 5 -11 10 -3 6 -1 10 4
10 6 0 11 -4 11 -10z m250 -35 c0 -11 -34 5 -42 19 -9 17 -9 17 16 1 14 -10
26 -19 26 -20z m-85 15 c3 -5 -1 -10 -10 -10 -9 0 -13 5 -10 10 3 6 8 10 10
10 2 0 7 -4 10 -10z m155 -51 c0 -3 -6 -6 -12 -6 -7 0 -20 -3 -28 -5 -8 -3
-12 -3 -7 -1 4 3 7 11 7 18 0 27 39 21 40 -6z m145 21 c3 -5 1 -10 -4 -10 -6
0 -11 5 -11 10 0 6 2 10 4 10 3 0 8 -4 11 -10z m123 -68 c2 -7 -2 -10 -12 -6
-9 3 -16 11 -16 16 0 13 23 5 28 -10z m92 -1 c0 -5 9 -13 20 -16 11 -3 20 -10
20 -15 0 -14 -48 10 -54 26 -3 8 -1 14 4 14 6 0 10 -4 10 -9z m-260 -31 c0 -5
-2 -10 -4 -10 -3 0 -8 5 -11 10 -3 6 -1 10 4 10 6 0 11 -4 11 -10z m95 -18
c-3 -3 -11 0 -18 7 -9 10 -8 11 6 5 10 -3 15 -9 12 -12z m-198 -8 c-3 -3 -12
-4 -19 -1 -8 3 -5 6 6 6 11 1 17 -2 13 -5z m43 -14 c8 -5 11 -10 5 -10 -5 0
-17 5 -25 10 -8 5 -10 10 -5 10 6 0 17 -5 25 -10z m90 0 c0 -5 -2 -10 -4 -10
-3 0 -8 5 -11 10 -3 6 -1 10 4 10 6 0 11 -4 11 -10z m45 0 c-9 -14 8 -13 23 2
9 9 12 6 12 -15 0 -25 -2 -27 -20 -17 -11 6 -24 8 -29 5 -5 -3 -7 4 -4 15 3
11 10 20 15 20 5 0 6 -4 3 -10z m-42 -56 c-4 -12 -2 -15 8 -12 8 3 13 11 12
17 -4 14 14 15 22 1 3 -5 1 -10 -5 -10 -6 0 -8 -5 -4 -12 4 -7 3 -8 -4 -4 -7
4 -12 2 -12 -3 0 -6 5 -11 12 -11 6 0 9 -2 6 -5 -7 -7 -68 24 -68 35 0 5 8 11
18 13 9 3 18 5 19 6 1 0 0 -6 -4 -15z m457 -5 c0 -6 -4 -7 -10 -4 -5 3 -10 11
-10 16 0 6 5 7 10 4 6 -3 10 -11 10 -16z m-373 4 c-4 -3 1 -11 10 -18 14 -10
13 -12 -8 -9 -13 1 -28 3 -33 3 -6 1 -1 8 10 16 20 15 32 20 21 8z m280 -29
c-3 -3 -12 -4 -19 -1 -8 3 -5 6 6 6 11 1 17 -2 13 -5z m110 -16 c-3 -8 -6 -5
-6 6 -1 11 2 17 5 13 3 -3 4 -12 1 -19z m-227 -13 c0 -8 -7 -15 -15 -15 -8 0
-15 5 -15 11 0 5 5 7 10 4 6 -3 10 -1 10 4 0 6 2 11 5 11 3 0 5 -7 5 -15z
m124 0 c-4 -8 -7 -15 -9 -15 -2 0 -5 7 -9 15 -3 9 0 15 9 15 9 0 12 -6 9 -15z
m-169 -5 c-3 -5 -12 -10 -18 -10 -7 0 -6 4 3 10 19 12 23 12 15 0z m252 -12
c-3 -8 -6 -5 -6 6 -1 11 2 17 5 13 3 -3 4 -12 1 -19z"/>
<path d="M4200 4468 c0 -9 5 -20 11 -23 17 -11 20 0 4 21 -13 17 -14 17 -15 2z"/>
<path d="M6545 3962 c-16 -2 -38 -11 -47 -19 -14 -12 -23 -13 -49 -4 -18 6
-56 11 -86 11 -79 0 -121 -26 -102 -62 16 -29 66 -49 140 -55 69 -6 74 -9 63
-37 -4 -11 -12 -13 -27 -7 -12 5 -25 9 -29 10 -54 10 -68 15 -68 20 0 4 -20 7
-45 7 l-45 0 0 -56 c0 -56 14 -93 28 -75 4 6 32 12 62 13 30 2 67 5 82 7 19 2
25 -1 22 -10 -4 -9 -24 -12 -72 -9 -49 3 -62 2 -47 -6 18 -8 16 -9 -10 -8 -66
3 -65 3 -65 -67 l0 -65 184 0 c100 0 211 -3 245 -6 l61 -7 -5 164 c-3 90 -8
188 -11 217 l-5 52 -72 -2 c-40 -2 -85 -5 -102 -6z m-198 -194 c-3 -8 -6 -5
-6 6 -1 11 2 17 5 13 3 -3 4 -12 1 -19z m283 -116 c0 -4 -19 -6 -42 -4 -71 5
-77 10 -15 11 31 0 57 -2 57 -7z m40 4 c0 -3 -4 -8 -10 -11 -5 -3 -10 -1 -10
4 0 6 5 11 10 11 6 0 10 -2 10 -4z m-312 -18 c-6 -18 -28 -21 -28 -4 0 9 7 16
16 16 9 0 14 -5 12 -12z"/>
<path d="M2451 2844 c0 -11 3 -14 6 -6 3 7 2 16 -1 19 -3 4 -6 -2 -5 -13z"/>
<path d="M4975 1690 c4 -6 11 -8 16 -5 14 9 11 15 -7 15 -8 0 -12 -5 -9 -10z"/>
<path d="M3098 1243 c7 -3 16 -2 19 1 4 3 -2 6 -13 5 -11 0 -14 -3 -6 -6z"/>
<path d="M5020 919 c0 -5 5 -7 10 -4 6 3 10 8 10 11 0 2 -4 4 -10 4 -5 0 -10
-5 -10 -11z"/>
<path d="M6368 733 c6 -2 18 -2 25 0 6 3 1 5 -13 5 -14 0 -19 -2 -12 -5z"/>
<path d="M9600 333 c0 -4 5 -15 10 -23 8 -13 10 -13 10 2 0 9 -4 20 -10 23 -5
3 -10 3 -10 -2z"/>
<path d="M9646 243 c-11 -12 -6 -19 14 -20 11 -1 20 2 20 7 0 10 -26 20 -34
13z"/>
<path d="M10 5171 c0 -39 1 -40 55 -60 31 -12 58 -21 61 -21 7 0 1 61 -7 66
-4 2 -10 -5 -14 -16 -11 -36 -35 -24 -35 19 0 32 -4 40 -22 45 -36 9 -38 8
-38 -33z"/>
<path d="M200 5138 c-10 -65 -10 -78 -1 -78 6 0 11 18 11 40 0 22 -2 40 -5 40
-3 0 -5 -1 -5 -2z"/>
<path d="M1 4180 l-2 -48 36 -4 c20 -2 37 -3 38 -2 1 2 1 21 -1 42 -3 34 -8
40 -36 49 l-33 10 -2 -47z"/>
<path d="M194 4157 c-1 -12 -4 -28 -5 -36 -2 -7 2 -16 9 -18 8 -3 12 8 12 36
0 43 -14 58 -16 18z"/>
<path d="M877 3997 c6 -41 24 -61 21 -24 -1 15 -7 27 -13 27 -5 0 -4 4 3 9 11
7 11 9 -1 14 -12 4 -14 -1 -10 -26z"/>
<path d="M10100 1847 c0 -1 4 -16 9 -34 7 -24 6 -31 -5 -29 -7 1 -17 6 -21 11
-4 4 -2 5 5 1 6 -4 12 -2 12 3 0 6 -11 11 -25 11 -17 0 -25 -6 -25 -16 0 -13
-6 -11 -25 10 -30 33 -37 33 -25 0 7 -16 7 -23 0 -19 -6 3 -10 -2 -10 -11 0
-16 -1 -16 -16 2 -12 15 -14 15 -11 3 7 -21 -49 -33 -57 -12 -3 7 -13 13 -21
13 -22 0 -48 -27 -35 -35 5 -3 10 -13 10 -22 0 -13 -3 -13 -15 -3 -12 10 -15
10 -15 -4 0 -9 -4 -16 -9 -16 -4 0 -6 11 -3 25 5 27 -15 35 -24 10 -7 -16 -34
-21 -34 -6 0 5 -13 8 -30 7 -32 -1 -36 -6 -19 -23 6 -6 8 -16 4 -22 -9 -15
-28 -2 -21 14 3 8 -3 19 -11 27 -14 11 -16 11 -11 -4 4 -9 3 -29 -2 -45 -5
-16 -9 -21 -9 -10 -1 11 -7 17 -18 15 -12 -2 -18 3 -17 15 1 9 -5 17 -12 17
-11 0 -12 -4 -4 -19 5 -11 10 -30 9 -43 l0 -23 -10 24 c-6 15 -14 21 -25 17
-9 -3 -19 -6 -24 -6 -4 0 -6 -10 -3 -22 3 -14 1 -19 -4 -12 -15 19 -43 25 -43
8 0 -8 4 -13 9 -9 5 3 13 0 17 -6 5 -8 3 -9 -6 -4 -9 6 -10 1 -5 -16 5 -19 3
-18 -13 7 -11 18 -26 35 -32 39 -7 4 -4 -4 5 -19 10 -15 15 -29 11 -33 -3 -3
-6 -1 -6 5 0 7 -5 12 -11 12 -6 0 -8 -10 -5 -22 l6 -23 -11 23 c-16 29 -27 28
-24 -3 2 -13 -3 -29 -10 -35 -9 -8 -16 -3 -25 20 -9 22 -16 28 -23 21 -8 -8
-7 -15 1 -23 21 -21 13 -29 -13 -12 -22 14 -25 14 -25 1 0 -9 17 -20 45 -28
25 -7 45 -17 45 -21 0 -17 20 -7 21 10 0 14 2 14 8 -3 l8 -20 5 20 c5 17 6 18
7 2 2 -29 55 -19 59 11 2 12 7 20 12 17 5 -3 7 -12 4 -20 -4 -11 2 -13 28 -9
18 2 83 9 143 14 61 6 137 13 170 16 33 3 70 7 82 9 12 2 59 7 103 11 l80 7 0
104 c0 81 -3 105 -14 109 -8 3 -12 12 -10 19 3 7 -4 18 -15 24 -19 11 -31 14
-31 8z m-203 -93 c-3 -3 -12 -4 -19 -1 -8 3 -5 6 6 6 11 1 17 -2 13 -5z m-369
-219 c-3 -3 -9 2 -12 12 -6 14 -5 15 5 6 7 -7 10 -15 7 -18z"/>
<path d="M8658 1733 c7 -3 16 -2 19 1 4 3 -2 6 -13 5 -11 0 -14 -3 -6 -6z"/>
<path d="M8638 1703 c7 -3 16 -2 19 1 4 3 -2 6 -13 5 -11 0 -14 -3 -6 -6z"/>
<path d="M8821 1703 c0 -7 -13 -11 -28 -10 -18 1 -29 -3 -31 -14 -1 -9 4 -16
13 -16 8 0 15 4 15 9 0 5 4 7 9 3 5 -3 23 -7 40 -9 22 -2 31 1 31 11 0 12 3
12 16 -1 8 -9 19 -14 24 -11 5 3 7 -6 4 -21 -5 -26 -4 -26 38 -20 24 3 67 8
96 12 38 5 52 11 52 22 0 11 3 13 10 6 15 -15 106 -2 102 15 -2 11 0 12 10 4
14 -11 78 -6 78 6 0 4 -28 8 -62 9 -34 1 -70 4 -80 8 -10 3 -18 0 -18 -6 0 -6
-8 -9 -17 -6 -37 12 -162 14 -165 4 -3 -8 -10 -8 -23 -1 -26 14 -85 9 -95 -7
-6 -9 -9 -8 -13 6 -2 10 -5 14 -6 7z m169 -35 c0 -9 3 -9 11 -1 12 12 49 6 49
-8 0 -5 -7 -6 -15 -3 -8 4 -15 1 -15 -5 0 -6 -11 -11 -25 -11 -14 0 -25 5 -25
11 0 8 -6 7 -17 -2 -11 -10 -14 -10 -9 -1 4 7 2 12 -6 13 -7 1 -2 5 12 9 36
12 40 11 40 -2z m90 -8 c0 -5 -2 -10 -4 -10 -3 0 -8 5 -11 10 -3 6 -1 10 4 10
6 0 11 -4 11 -10z"/>
<path d="M8790 1637 c0 -5 -9 -7 -20 -4 -11 3 -18 1 -15 -3 3 -5 -4 -8 -15 -7
-11 1 -20 5 -20 10 0 4 -4 5 -10 2 -5 -3 -10 -18 -10 -33 0 -21 2 -24 10 -12
6 10 10 11 10 3 0 -15 60 -11 133 8 51 13 56 19 31 40 -13 10 -17 10 -25 -2
-5 -8 -9 -9 -9 -4 0 13 -60 15 -60 2z m17 -29 c-3 -8 -6 -5 -6 6 -1 11 2 17 5
13 3 -3 4 -12 1 -19z"/>
<path d="M8460 1610 c0 -5 5 -10 10 -10 6 0 10 5 10 10 0 6 -4 10 -10 10 -5 0
-10 -4 -10 -10z"/>
<path d="M8664 1595 c4 -14 2 -25 -4 -25 -5 0 -10 -4 -10 -10 0 -5 7 -10 15
-10 10 0 15 11 15 35 0 19 -5 35 -11 35 -7 0 -9 -10 -5 -25z"/>
<path d="M8636 1597 c3 -10 9 -15 12 -12 3 3 0 11 -7 18 -10 9 -11 8 -5 -6z"/>
<path d="M8538 1564 c-19 -10 -26 -20 -23 -35 3 -13 0 -19 -8 -16 -7 3 -11 10
-9 16 4 20 -30 11 -35 -9 -4 -14 -11 -19 -23 -15 -10 3 -25 -1 -33 -10 -9 -8
-21 -15 -27 -15 -6 0 -8 -4 -5 -10 3 -6 -1 -7 -9 -4 -10 4 -16 1 -16 -9 0 -12
-8 -15 -32 -12 -21 3 -28 1 -19 -4 10 -7 6 -13 -18 -27 -17 -10 -31 -22 -31
-26 0 -4 -6 -8 -14 -8 -13 0 -30 -50 -20 -59 2 -3 31 14 64 37 60 43 80 50 80
31 0 -5 5 -7 11 -3 8 5 8 9 -1 14 -20 12 82 66 103 54 7 -4 9 -4 5 1 -8 9 81
58 126 69 14 3 26 10 26 15 0 13 -30 35 -37 28 -3 -4 -11 -3 -17 2 -7 6 -21 4
-38 -5z"/>
<path d="M8810 1570 c-13 -8 -13 -10 2 -10 9 0 20 5 23 10 8 13 -5 13 -25 0z"/>
<path d="M10110 1546 c0 -2 7 -7 16 -10 8 -3 12 -2 9 4 -6 10 -25 14 -25 6z"/>
<path d="M9766 1505 c4 -8 12 -15 20 -15 20 0 17 7 -6 20 -16 9 -18 8 -14 -5z"/>
<path d="M9580 1486 c0 -8 4 -17 9 -20 5 -4 7 3 4 14 -6 23 -13 26 -13 6z"/>
<path d="M9652 1478 c-15 -15 -16 -38 -1 -38 6 0 9 7 6 14 -4 10 -1 13 8 10 9
-4 12 -16 8 -42 -3 -20 -3 -35 0 -32 9 8 16 91 7 85 -5 -3 -10 0 -12 5 -2 7
-8 6 -16 -2z"/>
<path d="M2230 1470 c-18 -12 -2 -12 25 0 13 6 15 9 5 9 -8 0 -22 -4 -30 -9z"/>
<path d="M9400 1460 c0 -5 5 -10 10 -10 6 0 10 5 10 10 0 6 -4 10 -10 10 -5 0
-10 -4 -10 -10z"/>
<path d="M9555 1451 c11 -9 25 -26 31 -36 12 -21 54 -30 53 -11 0 6 -4 20 -9
31 -8 18 -9 18 -10 -5 -1 -16 -4 -20 -7 -10 -8 19 -32 37 -58 44 l-20 5 20
-18z"/>
<path d="M9716 1455 c4 -8 8 -15 10 -15 2 0 4 7 4 15 0 8 -4 15 -10 15 -5 0
-7 -7 -4 -15z"/>
<path d="M9745 1460 c-3 -5 -1 -10 4 -10 6 0 11 5 11 10 0 6 -2 10 -4 10 -3 0
-8 -4 -11 -10z"/>
<path d="M9808 1463 c7 -3 16 -2 19 1 4 3 -2 6 -13 5 -11 0 -14 -3 -6 -6z"/>
<path d="M2037 1441 c-28 -18 -28 -18 -5 -24 12 -4 25 -1 29 5 4 7 21 8 45 4
37 -6 38 -6 19 9 -11 9 -28 14 -38 11 -9 -2 -15 0 -11 5 8 14 -8 9 -39 -10z"/>
<path d="M9520 1448 c0 -17 49 -62 58 -53 3 2 -9 19 -27 37 -22 23 -31 27 -31
16z"/>
<path d="M1975 1440 c-3 -5 -1 -10 4 -10 6 0 11 5 11 10 0 6 -2 10 -4 10 -3 0
-8 -4 -11 -10z"/>
<path d="M9476 1433 c-4 -10 -4 -14 0 -11 7 8 37 -26 47 -52 3 -9 6 -5 6 11 1
14 -8 35 -19 47 -25 26 -26 27 -34 5z"/>
<path d="M8405 1420 c-3 -6 1 -7 9 -4 18 7 21 14 7 14 -6 0 -13 -4 -16 -10z"/>
<path d="M9350 1421 c0 -2 11 -16 25 -33 18 -22 25 -25 25 -13 0 12 5 15 16
11 14 -6 15 -4 4 9 -11 13 -15 13 -22 3 -6 -9 -7 -6 -3 8 5 19 2 22 -20 20
-14 0 -25 -3 -25 -5z"/>
<path d="M9430 1420 c0 -5 4 -10 9 -10 6 0 13 5 16 10 3 6 -1 10 -9 10 -9 0
-16 -4 -16 -10z"/>
<path d="M9775 1420 c3 -5 8 -10 11 -10 2 0 4 5 4 10 0 6 -5 10 -11 10 -5 0
-7 -4 -4 -10z"/>
<path d="M7867 1409 c7 -7 15 -10 18 -7 3 3 -2 9 -12 12 -14 6 -15 5 -6 -5z"/>
<path d="M9456 1403 c-3 -4 -6 -10 -6 -14 0 -9 39 -19 44 -10 6 9 -30 32 -38
24z"/>
<path d="M5408 1384 c-7 -6 -2 -85 8 -131 2 -13 9 -23 14 -23 7 0 8 24 4 68
-7 69 -15 97 -26 86z"/>
<path d="M9230 1374 c0 -8 5 -12 10 -9 6 3 10 10 10 16 0 5 -4 9 -10 9 -5 0
-10 -7 -10 -16z"/>
<path d="M9350 1374 c0 -12 7 -24 15 -28 19 -7 19 5 0 30 -14 19 -14 19 -15
-2z"/>
<path d="M8325 1360 c-10 -11 -15 -20 -11 -20 11 0 39 30 34 36 -3 2 -13 -5
-23 -16z"/>
<path d="M1723 1363 c-7 -2 -13 -9 -13 -15 0 -7 4 -7 13 0 6 6 26 12 42 15
l30 4 -30 1 c-16 0 -36 -2 -42 -5z"/>
<path d="M9270 1359 c0 -5 5 -7 10 -4 6 3 10 8 10 11 0 2 -4 4 -10 4 -5 0 -10
-5 -10 -11z"/>
<path d="M9300 1349 c0 -11 5 -17 10 -14 6 4 10 -9 10 -32 0 -21 5 -45 10 -53
7 -11 9 1 4 40 -3 30 -7 61 -9 68 -7 20 -25 14 -25 -9z"/>
<path d="M7936 1335 c-4 -12 -1 -16 11 -13 18 3 21 20 5 26 -5 1 -12 -4 -16
-13z"/>
<path d="M9250 1344 c0 -3 7 -19 16 -36 10 -20 19 -27 26 -20 6 6 1 18 -16 35
-14 14 -26 24 -26 21z"/>
<path d="M9410 1334 c0 -8 -4 -12 -10 -9 -5 3 -10 1 -10 -4 0 -6 7 -11 15 -11
8 0 15 9 15 20 0 11 -2 20 -5 20 -3 0 -5 -7 -5 -16z"/>
<path d="M1718 1332 c-31 -6 -19 -18 17 -18 21 0 35 5 35 12 0 12 -15 14 -52
6z"/>
<path d="M1803 1333 c9 -2 25 -2 35 0 9 3 1 5 -18 5 -19 0 -27 -2 -17 -5z"/>
<path d="M5517 1319 c9 -9 26 -9 65 -2 l53 10 -64 2 c-49 1 -62 -2 -54 -10z"/>
<path d="M5668 1323 c7 -3 16 -2 19 1 4 3 -2 6 -13 5 -11 0 -14 -3 -6 -6z"/>
<path d="M1595 1310 c-3 -5 -1 -10 4 -10 6 0 11 5 11 10 0 6 -2 10 -4 10 -3 0
-8 -4 -11 -10z"/>
<path d="M9181 1298 c13 -25 44 -58 55 -58 3 0 1 6 -5 14 -6 8 -11 18 -10 22
3 19 -1 34 -11 34 -5 0 -6 -7 -3 -17 4 -11 3 -14 -5 -9 -7 4 -12 14 -12 22 0
8 -5 14 -10 14 -7 0 -7 -8 1 -22z"/>
<path d="M8235 1290 c-19 -21 -7 -28 13 -8 10 10 15 10 22 -2 11 -17 13 -9 4
14 -8 21 -17 20 -39 -4z"/>
<path d="M4920 1290 c0 -5 5 -10 11 -10 5 0 7 5 4 10 -3 6 -8 10 -11 10 -2 0
-4 -4 -4 -10z"/>
<path d="M9131 1264 c0 -11 3 -14 6 -6 3 7 2 16 -1 19 -3 4 -6 -2 -5 -13z"/>
<path d="M9250 1271 c0 -5 5 -13 10 -16 6 -3 10 -2 10 4 0 5 -4 13 -10 16 -5
3 -10 2 -10 -4z"/>
<path d="M9302 1250 c0 -14 2 -19 5 -12 2 6 2 18 0 25 -3 6 -5 1 -5 -13z"/>
<path d="M8848 1243 c7 -3 16 -2 19 1 4 3 -2 6 -13 5 -11 0 -14 -3 -6 -6z"/>
<path d="M1445 1230 c-28 -7 -29 -8 -5 -10 21 -2 22 -3 5 -7 -11 -3 -24 -9
-30 -13 -5 -4 -29 -11 -53 -15 -24 -4 -41 -9 -38 -12 7 -7 266 48 266 56 0 9
-109 9 -145 1z"/>
<path d="M4337 1218 c-13 -13 -43 -65 -67 -116 -43 -93 -50 -131 -12 -70 27
43 111 208 107 208 -2 0 -15 -10 -28 -22z"/>
<path d="M9085 1230 c3 -5 8 -10 11 -10 2 0 4 5 4 10 0 6 -5 10 -11 10 -5 0
-7 -4 -4 -10z"/>
<path d="M9161 1230 c0 -8 13 -31 29 -50 17 -19 30 -30 30 -25 0 6 -11 22 -23
36 -13 13 -27 31 -30 39 -5 13 -5 13 -6 0z"/>
<path d="M8858 1213 c7 -3 16 -2 19 1 4 3 -2 6 -13 5 -11 0 -14 -3 -6 -6z"/>
<path d="M9215 1210 c-4 -6 5 -10 20 -10 15 0 24 4 20 10 -3 6 -12 10 -20 10
-8 0 -17 -4 -20 -10z"/>
<path d="M1815 1200 l-30 -8 27 -1 c15 0 30 4 33 9 3 6 5 9 3 9 -2 -1 -16 -5
-33 -9z"/>
<path d="M8915 1200 c4 -6 11 -8 16 -5 14 9 11 15 -7 15 -8 0 -12 -5 -9 -10z"/>
<path d="M9127 1203 c-4 -3 -7 -11 -7 -17 0 -6 5 -5 12 2 6 6 9 14 7 17 -3 3
-9 2 -12 -2z"/>
<path d="M8200 1196 c0 -2 7 -9 15 -16 12 -10 15 -10 15 4 0 9 -7 16 -15 16
-8 0 -15 -2 -15 -4z"/>
<path d="M1480 1180 c-9 -6 -10 -10 -3 -10 6 0 15 5 18 10 8 12 4 12 -15 0z"/>
<path d="M2520 1174 l-45 -13 45 5 c45 6 93 24 60 23 -8 -1 -35 -7 -60 -15z"/>
<path d="M8665 1180 c-3 -5 -1 -10 4 -10 6 0 11 5 11 10 0 6 -2 10 -4 10 -3 0
-8 -4 -11 -10z"/>
<path d="M9888 1183 c7 -3 16 -2 19 1 4 3 -2 6 -13 5 -11 0 -14 -3 -6 -6z"/>
<path d="M4667 1173 c-3 -5 -1 -17 4 -28 4 -11 8 -15 8 -8 1 6 4 18 7 27 6 16
-11 23 -19 9z"/>
<path d="M9147 1173 c-2 -4 4 -17 14 -27 16 -16 19 -17 19 -4 0 18 -26 43 -33
31z"/>
<path d="M9280 1169 c0 -5 5 -7 10 -4 6 3 10 8 10 11 0 2 -4 4 -10 4 -5 0 -10
-5 -10 -11z"/>
<path d="M1408 1163 c7 -3 16 -2 19 1 4 3 -2 6 -13 5 -11 0 -14 -3 -6 -6z"/>
<path d="M2758 1163 c7 -3 16 -2 19 1 4 3 -2 6 -13 5 -11 0 -14 -3 -6 -6z"/>
<path d="M8343 1155 c0 -8 6 -16 14 -19 15 -6 15 -4 7 18 -8 20 -21 21 -21 1z"/>
<path d="M8703 1149 c-1 -10 3 -19 8 -19 6 0 8 4 5 9 -4 5 -1 11 6 13 8 3 7 6
-3 10 -10 4 -15 -1 -16 -13z"/>
<path d="M9040 1161 c0 -5 7 -12 16 -15 24 -9 27 -7 10 9 -17 17 -26 19 -26 6z"/>
<path d="M2288 1153 c6 -2 18 -2 25 0 6 3 1 5 -13 5 -14 0 -19 -2 -12 -5z"/>
<path d="M2448 1153 c7 -3 16 -2 19 1 4 3 -2 6 -13 5 -11 0 -14 -3 -6 -6z"/>
<path d="M2718 1153 c7 -3 16 -2 19 1 4 3 -2 6 -13 5 -11 0 -14 -3 -6 -6z"/>
<path d="M8405 1150 c3 -5 13 -10 21 -10 8 0 14 -4 14 -10 0 -5 5 -10 12 -10
6 0 3 9 -7 20 -18 20 -51 28 -40 10z"/>
<path d="M8620 1156 c0 -2 7 -6 15 -10 8 -3 15 -1 15 4 0 6 -7 10 -15 10 -8 0
-15 -2 -15 -4z"/>
<path d="M8870 1150 c-13 -8 -12 -10 3 -10 9 0 17 5 17 10 0 12 -1 12 -20 0z"/>
<path d="M9100 1150 c-13 -8 -12 -10 3 -10 9 0 17 5 17 10 0 12 -1 12 -20 0z"/>
<path d="M2355 1135 l-50 -14 45 6 c25 3 54 9 65 14 31 12 -4 9 -60 -6z"/>
<path d="M8235 1139 c-4 -6 -5 -12 -2 -15 2 -3 7 2 10 11 7 17 1 20 -8 4z"/>
<path d="M9135 1139 c-4 -6 -5 -12 -2 -15 2 -3 7 2 10 11 7 17 1 20 -8 4z"/>
<path d="M2198 1133 c7 -3 16 -2 19 1 4 3 -2 6 -13 5 -11 0 -14 -3 -6 -6z"/>
<path d="M8735 1120 c3 -5 11 -10 16 -10 6 0 7 5 4 10 -3 6 -11 10 -16 10 -6
0 -7 -4 -4 -10z"/>
<path d="M8379 1109 c-10 -6 -7 -9 14 -9 29 0 35 5 14 13 -8 3 -20 1 -28 -4z"/>
<path d="M8578 1103 c6 -2 12 -11 12 -18 0 -16 38 -40 48 -31 3 3 0 6 -6 6 -7
0 -12 7 -12 16 0 8 -4 13 -9 10 -5 -3 -11 1 -15 9 -3 8 -11 15 -18 14 -10 0
-10 -2 0 -6z"/>
<path d="M8776 1101 c14 -15 64 -22 64 -10 0 5 -6 9 -12 9 -7 0 -24 3 -38 6
-19 5 -22 4 -14 -5z"/>
<path d="M8860 1101 c0 -5 -3 -16 -6 -25 -4 -10 -1 -16 7 -16 8 0 14 11 14 25
0 14 -3 25 -7 25 -5 0 -8 -4 -8 -9z"/>
<path d="M8988 1080 c9 -16 21 -30 25 -30 5 0 -1 14 -13 30 -27 39 -34 39 -12
0z"/>
<path d="M2400 1080 l-25 -8 25 0 c14 0 34 3 45 8 l20 9 -20 -1 c-11 0 -31 -4
-45 -8z"/>
<path d="M8335 1080 c-3 -5 -1 -10 4 -10 6 0 11 5 11 10 0 6 -2 10 -4 10 -3 0
-8 -4 -11 -10z"/>
<path d="M8439 1078 c-1 -7 -1 -16 0 -20 2 -13 -13 -9 -38 9 -18 12 -22 13
-15 2 4 -8 9 -27 9 -43 0 -16 6 -31 14 -34 10 -3 11 0 5 9 -21 34 -15 47 21
45 42 -4 55 -14 35 -26 -9 -6 -10 -10 -3 -10 21 0 27 23 10 35 -10 7 -17 17
-17 23 0 16 -20 25 -21 10z"/>
<path d="M10136 1067 c3 -10 9 -15 12 -12 3 3 0 11 -7 18 -10 9 -11 8 -5 -6z"/>
<path d="M8920 1066 c0 -2 7 -9 15 -16 9 -7 15 -8 15 -2 0 5 -7 12 -15 16 -8
3 -15 4 -15 2z"/>
<path d="M8357 1043 c-12 -11 -8 -23 8 -23 8 0 15 7 15 15 0 16 -12 20 -23 8z"/>
<path d="M9670 1035 c0 -8 2 -15 4 -15 2 0 6 7 10 15 3 8 1 15 -4 15 -6 0 -10
-7 -10 -15z"/>
<path d="M10125 1031 c-6 -11 13 -26 22 -17 4 3 0 6 -8 6 -11 0 -11 2 1 10 9
6 10 10 3 10 -6 0 -14 -4 -18 -9z"/>
<path d="M9906 1017 c3 -10 9 -15 12 -12 3 3 0 11 -7 18 -10 9 -11 8 -5 -6z"/>
<path d="M3644 994 c-10 -14 -27 -35 -36 -46 -31 -36 -29 -36 68 -30 14 1 23
6 20 11 -3 5 9 14 27 20 25 9 29 14 17 21 -8 5 -11 12 -8 16 12 11 -19 34 -45
34 -14 0 -32 -10 -43 -26z"/>
<path d="M4836 966 c-4 -20 -2 -44 3 -54 9 -15 11 -14 12 8 l1 25 7 -25 c6
-22 9 -19 28 28 15 37 18 52 9 52 -6 0 -18 -6 -24 -12 -10 -10 -15 -10 -21 1
-6 9 -11 2 -15 -23z"/>
<path d="M5848 993 c12 -2 30 -2 40 0 9 3 -1 5 -23 4 -22 0 -30 -2 -17 -4z"/>
<path d="M8977 980 c-3 -10 1 -24 9 -31 11 -9 14 -7 14 14 0 32 -16 44 -23 17z"/>
<path d="M9658 993 c7 -3 16 -2 19 1 4 3 -2 6 -13 5 -11 0 -14 -3 -6 -6z"/>
<path d="M9695 990 c-3 -5 -1 -10 4 -10 6 0 11 5 11 10 0 6 -2 10 -4 10 -3 0
-8 -4 -11 -10z"/>
<path d="M8920 986 c0 -2 7 -7 16 -10 8 -3 12 -2 9 4 -6 10 -25 14 -25 6z"/>
<path d="M9220 975 c0 -8 4 -15 10 -15 5 0 7 7 4 15 -4 8 -8 15 -10 15 -2 0
-4 -7 -4 -15z"/>
<path d="M9500 975 c0 -9 6 -12 15 -9 8 4 15 7 15 9 0 2 -7 5 -15 9 -9 3 -15
0 -15 -9z"/>
<path d="M9250 969 c0 -4 7 -12 15 -19 13 -11 14 -10 9 5 -5 13 -4 16 4 11 7
-4 12 -3 12 3 0 5 -9 9 -20 8 -11 -1 -20 -4 -20 -8z"/>
<path d="M8910 965 c0 -3 13 -17 29 -32 15 -16 31 -35 34 -43 4 -12 6 -12 6 2
1 9 -4 20 -9 23 -6 4 -7 11 -4 17 4 7 2 8 -5 4 -6 -4 -14 -1 -17 8 -5 13 -34
31 -34 21z"/>
<path d="M9726 954 c-4 -9 -4 -19 -1 -22 2 -3 7 3 11 12 4 9 4 19 1 22 -2 3
-7 -3 -11 -12z"/>
<path d="M9215 940 c10 -11 20 -20 23 -20 3 0 -3 9 -13 20 -10 11 -20 20 -23
20 -3 0 3 -9 13 -20z"/>
<path d="M4927 898 c6 -73 11 -83 12 -23 0 28 -3 56 -8 63 -5 8 -6 -8 -4 -40z"/>
<path d="M9030 939 c0 -5 5 -7 10 -4 6 3 10 8 10 11 0 2 -4 4 -10 4 -5 0 -10
-5 -10 -11z"/>
<path d="M9062 921 c-7 -19 -7 -31 -1 -31 5 0 9 10 9 23 0 18 2 19 10 7 5 -8
10 -10 10 -5 0 6 -4 16 -9 23 -6 10 -11 6 -19 -17z"/>
<path d="M9575 929 c7 -11 35 -12 35 -1 0 4 -9 8 -20 9 -11 1 -18 -2 -15 -8z"/>
<path d="M9130 921 c0 -6 4 -13 10 -16 6 -3 7 1 4 9 -7 18 -14 21 -14 7z"/>
<path d="M9276 922 c-2 -4 4 -8 15 -8 10 0 19 4 19 8 0 4 -6 8 -14 8 -8 0 -17
-4 -20 -8z"/>
<path d="M3388 913 c6 -2 18 -2 25 0 6 3 1 5 -13 5 -14 0 -19 -2 -12 -5z"/>
<path d="M3307 890 c3 -12 14 -20 27 -20 15 0 17 3 7 9 -9 6 -10 11 -2 15 6 4
16 4 23 0 7 -4 8 -3 4 4 -4 7 -20 12 -36 12 -23 0 -27 -3 -23 -20z"/>
<path d="M4817 874 c-4 -21 -4 -40 -2 -43 3 -2 5 4 6 15 0 18 1 18 9 -1 7 -17
9 -16 9 10 1 49 -15 62 -22 19z"/>
<path d="M8925 894 c9 -9 18 -14 21 -11 9 9 -6 27 -22 27 -13 0 -13 -2 1 -16z"/>
<path d="M9106 891 c-4 -7 -5 -15 -2 -18 9 -9 19 4 14 18 -4 11 -6 11 -12 0z"/>
<path d="M9948 893 c7 -3 16 -2 19 1 4 3 -2 6 -13 5 -11 0 -14 -3 -6 -6z"/>
<path d="M9142 881 c-11 -7 -11 -9 2 -14 10 -4 16 -1 16 8 0 17 -1 17 -18 6z"/>
<path d="M8863 867 c-3 -7 -2 -9 2 -4 5 4 17 0 27 -10 16 -14 18 -14 18 -1 0
19 -37 31 -47 15z"/>
<path d="M9512 868 c2 -7 -3 -12 -9 -10 -7 1 -13 -2 -13 -8 0 -5 5 -10 11 -10
5 0 7 -4 4 -10 -4 -6 1 -7 11 -3 12 4 14 8 6 11 -10 3 -10 7 -2 17 8 9 8 15 0
20 -6 4 -9 1 -8 -7z"/>
<path d="M9860 870 c0 -5 5 -10 11 -10 5 0 7 5 4 10 -3 6 -8 10 -11 10 -2 0
-4 -4 -4 -10z"/>
<path d="M3188 862 c-20 -4 -25 -22 -5 -21 6 0 21 4 31 8 15 6 16 9 5 12 -8 3
-22 4 -31 1z"/>
<path d="M5212 850 c0 -14 2 -19 5 -12 2 6 2 18 0 25 -3 6 -5 1 -5 -13z"/>
<path d="M8960 849 c7 -11 14 -19 16 -16 7 7 -7 37 -17 37 -6 0 -5 -9 1 -21z"/>
<path d="M9036 858 c3 -5 10 -6 15 -3 13 9 11 12 -6 12 -8 0 -12 -4 -9 -9z"/>
<path d="M9088 858 c6 -6 20 -13 29 -14 16 -2 16 -1 -1 12 -24 17 -45 19 -28
2z"/>
<path d="M9440 865 c0 -2 7 -8 15 -15 12 -10 15 -10 15 2 0 8 -7 15 -15 15 -8
0 -15 -1 -15 -2z"/>
<path d="M9727 849 c4 -13 8 -18 11 -10 2 7 -1 18 -6 23 -8 8 -9 4 -5 -13z"/>
<path d="M9347 853 c-4 -3 -7 -11 -7 -17 0 -6 5 -5 12 2 6 6 9 14 7 17 -3 3
-9 2 -12 -2z"/>
<path d="M3135 840 c3 -5 8 -10 11 -10 2 0 4 5 4 10 0 6 -5 10 -11 10 -5 0 -7
-4 -4 -10z"/>
<path d="M4911 834 c0 -11 3 -14 6 -6 3 7 2 16 -1 19 -3 4 -6 -2 -5 -13z"/>
<path d="M5051 833 c0 -12 -5 -25 -11 -28 -5 -3 -10 -18 -9 -33 0 -15 3 -20 6
-12 2 8 9 25 15 36 5 12 8 30 5 40 -4 16 -5 16 -6 -3z"/>
<path d="M5396 820 c8 -43 14 -51 14 -19 0 13 -5 31 -10 39 -7 11 -8 5 -4 -20z"/>
<path d="M8920 838 c0 -14 48 -58 62 -58 5 0 -2 10 -15 23 -13 12 -22 28 -20
35 3 6 -2 12 -11 12 -9 0 -16 -5 -16 -12z"/>
<path d="M9010 841 c0 -5 7 -12 16 -15 14 -5 15 -4 4 9 -14 17 -20 19 -20 6z"/>
<path d="M9565 840 c3 -5 14 -10 23 -10 15 0 15 2 2 10 -20 13 -33 13 -25 0z"/>
<path d="M5242 805 c0 -16 2 -22 5 -12 2 9 2 23 0 30 -3 6 -5 -1 -5 -18z"/>
<path d="M9380 820 c0 -5 5 -10 11 -10 5 0 7 5 4 10 -3 6 -8 10 -11 10 -2 0
-4 -4 -4 -10z"/>
<path d="M9910 820 c0 -5 5 -10 11 -10 5 0 7 5 4 10 -3 6 -8 10 -11 10 -2 0
-4 -4 -4 -10z"/>
<path d="M8980 808 c0 -4 9 -8 20 -8 11 0 20 4 20 8 0 4 -9 8 -20 8 -11 0 -20
-4 -20 -8z"/>
<path d="M9050 810 c0 -5 5 -10 11 -10 5 0 7 5 4 10 -3 6 -8 10 -11 10 -2 0
-4 -4 -4 -10z"/>
<path d="M9310 811 c0 -6 4 -13 10 -16 6 -3 7 1 4 9 -7 18 -14 21 -14 7z"/>
<path d="M9846 805 c4 -8 8 -15 10 -15 2 0 4 7 4 15 0 8 -4 15 -10 15 -5 0 -7
-7 -4 -15z"/>
<path d="M10035 800 c2 -14 5 -28 5 -32 0 -4 7 -5 16 -1 15 5 15 8 2 17 -8 6
-18 18 -21 26 -4 8 -5 4 -2 -10z"/>
<path d="M10070 810 c0 -5 5 -10 11 -10 5 0 7 5 4 10 -3 6 -8 10 -11 10 -2 0
-4 -4 -4 -10z"/>
<path d="M9414 785 c11 -8 22 -12 25 -9 6 6 -19 24 -34 24 -5 -1 -1 -7 9 -15z"/>
<path d="M9546 786 c10 -8 21 -12 24 -10 5 6 -21 24 -34 24 -6 0 -1 -6 10 -14z"/>
<path d="M9110 781 c0 -6 4 -13 10 -16 6 -3 7 1 4 9 -7 18 -14 21 -14 7z"/>
<path d="M9210 781 c0 -5 5 -13 10 -16 6 -3 10 -2 10 4 0 5 -4 13 -10 16 -5 3
-10 2 -10 -4z"/>
<path d="M9720 780 c0 -5 5 -10 11 -10 5 0 7 5 4 10 -3 6 -8 10 -11 10 -2 0
-4 -4 -4 -10z"/>
<path d="M9035 770 c11 -5 27 -9 35 -9 9 0 8 4 -5 9 -11 5 -27 9 -35 9 -9 0
-8 -4 5 -9z"/>
<path d="M9480 764 c0 -8 5 -12 10 -9 6 4 8 11 5 16 -9 14 -15 11 -15 -7z"/>
<path d="M9331 752 c-11 -11 -10 -13 5 -10 13 2 19 -3 18 -14 -1 -10 4 -14 12
-11 18 7 18 9 -4 31 -15 15 -20 16 -31 4z"/>
<path d="M9905 760 c3 -5 8 -10 11 -10 2 0 4 5 4 10 0 6 -5 10 -11 10 -5 0 -7
-4 -4 -10z"/>
<path d="M5820 750 c-9 -6 -10 -10 -3 -10 6 0 15 5 18 10 8 12 4 12 -15 0z"/>
<path d="M9645 750 c3 -5 11 -10 16 -10 6 0 7 5 4 10 -3 6 -11 10 -16 10 -6 0
-7 -4 -4 -10z"/>
<path d="M9966 747 c3 -10 9 -15 12 -12 3 3 0 11 -7 18 -10 9 -11 8 -5 -6z"/>
<path d="M10155 750 c3 -5 8 -10 11 -10 2 0 4 5 4 10 0 6 -5 10 -11 10 -5 0
-7 -4 -4 -10z"/>
<path d="M4900 740 c0 -5 5 -10 10 -10 6 0 10 5 10 10 0 6 -4 10 -10 10 -5 0
-10 -4 -10 -10z"/>
<path d="M5008 715 c2 -19 6 -35 8 -35 2 0 4 16 4 35 0 19 -4 35 -8 35 -4 0
-6 -16 -4 -35z"/>
<path d="M6010 740 c0 -11 14 -11 50 0 22 7 21 8 -12 9 -21 1 -38 -3 -38 -9z"/>
<path d="M9230 740 c-8 -5 -10 -10 -5 -10 6 0 17 5 25 10 8 5 11 10 5 10 -5 0
-17 -5 -25 -10z"/>
<path d="M9392 738 c2 -6 10 -14 16 -16 7 -2 10 2 6 12 -7 18 -28 22 -22 4z"/>
<path d="M4791 724 c0 -11 3 -14 6 -6 3 7 2 16 -1 19 -3 4 -6 -2 -5 -13z"/>
<path d="M8960 733 c0 -5 16 -16 35 -25 30 -15 35 -15 35 -3 0 8 -9 15 -20 15
-11 0 -20 5 -20 10 0 6 -7 10 -15 10 -8 0 -15 -3 -15 -7z"/>
<path d="M9784 716 c31 -27 57 -36 37 -12 -7 8 -8 16 -4 18 4 3 2 3 -5 1 -7
-1 -23 2 -35 8 -16 8 -14 4 7 -15z"/>
<path d="M9178 723 c7 -3 16 -2 19 1 4 3 -2 6 -13 5 -11 0 -14 -3 -6 -6z"/>
<path d="M9274 701 c1 -16 4 -27 7 -25 4 2 9 -3 12 -11 4 -9 1 -12 -9 -8 -7 3
-14 1 -14 -5 0 -16 25 -21 43 -7 16 11 15 13 -3 30 -11 10 -20 26 -20 37 0 10
-4 18 -9 18 -4 0 -8 -13 -7 -29z"/>
<path d="M9528 723 c7 -3 16 -2 19 1 4 3 -2 6 -13 5 -11 0 -14 -3 -6 -6z"/>
<path d="M10065 720 c3 -5 8 -10 11 -10 2 0 4 5 4 10 0 6 -5 10 -11 10 -5 0
-7 -4 -4 -10z"/>
<path d="M5505 709 c-4 -6 -5 -12 -2 -15 2 -3 7 2 10 11 7 17 1 20 -8 4z"/>
<path d="M5242 690 c0 -14 2 -19 5 -12 2 6 2 18 0 25 -3 6 -5 1 -5 -13z"/>
<path d="M9510 700 c0 -6 7 -10 15 -10 8 0 15 2 15 4 0 2 -7 6 -15 10 -8 3
-15 1 -15 -4z"/>
<path d="M9917 699 c7 -7 15 -10 18 -7 3 3 -2 9 -12 12 -14 6 -15 5 -6 -5z"/>
<path d="M5341 683 c-1 -12 4 -25 9 -28 12 -7 12 2 0 30 -8 19 -9 19 -9 -2z"/>
<path d="M5421 684 c0 -11 3 -14 6 -6 3 7 2 16 -1 19 -3 4 -6 -2 -5 -13z"/>
<path d="M5621 684 c0 -11 3 -14 6 -6 3 7 2 16 -1 19 -3 4 -6 -2 -5 -13z"/>
<path d="M6260 690 c9 -4 31 -5 50 0 34 8 33 8 -15 9 -34 0 -45 -3 -35 -9z"/>
<path d="M6405 691 c-3 -5 11 -7 31 -6 48 5 53 11 9 13 -19 1 -37 -3 -40 -7z"/>
<path d="M10136 685 c4 -8 7 -15 9 -15 1 0 8 7 15 15 10 13 9 15 -8 15 -15 0
-20 -5 -16 -15z"/>
<path d="M9566 675 c-5 -13 -2 -14 17 -4 32 17 33 19 10 19 -12 0 -23 -7 -27
-15z"/>
<path d="M9690 679 c0 -5 -6 -7 -12 -4 -7 4 -2 -3 11 -14 13 -12 26 -19 30
-16 3 3 -1 10 -8 14 -7 5 -10 14 -7 20 4 6 2 11 -3 11 -6 0 -11 -5 -11 -11z"/>
<path d="M9783 663 c0 -7 6 -13 13 -13 6 0 14 6 17 13 3 7 -3 13 -12 13 -10 0
-18 -6 -18 -13z"/>
<path d="M9980 669 c0 -5 9 -9 20 -9 11 0 20 2 20 4 0 2 -9 6 -20 9 -11 3 -20
1 -20 -4z"/>
<path d="M9503 655 c0 -8 4 -12 8 -10 3 3 9 -5 12 -17 4 -12 9 -20 12 -16 7 6
-15 58 -25 58 -4 0 -7 -7 -7 -15z"/>
<path d="M9453 637 c0 -14 6 -28 15 -32 12 -4 13 -3 2 10 -10 12 -9 15 6 16
14 0 15 2 4 6 -8 3 -18 10 -21 16 -4 5 -6 -2 -6 -16z"/>
<path d="M9551 640 c0 -8 6 -26 15 -40 l14 -25 -2 24 c-3 24 12 33 56 32 10 0
15 3 11 7 -11 11 -59 9 -67 -2 -6 -7 -11 -6 -18 4 -9 13 -10 13 -9 0z"/>
<path d="M9978 628 c5 -20 6 -20 12 -3 6 18 7 18 13 0 4 -10 10 -15 14 -12 8
9 -16 37 -32 37 -9 0 -11 -8 -7 -22z"/>
<path d="M9810 629 c0 -5 5 -7 10 -4 6 3 10 8 10 11 0 2 -4 4 -10 4 -5 0 -10
-5 -10 -11z"/>
<path d="M9738 623 c-10 -3 -18 -11 -18 -20 0 -13 3 -13 16 -2 13 10 17 10 25
-2 7 -12 9 -11 9 3 0 20 -9 26 -32 21z"/>
<path d="M9490 616 c0 -2 7 -7 16 -10 8 -3 12 -2 9 4 -6 10 -25 14 -25 6z"/>
<path d="M9618 613 c7 -3 16 -2 19 1 4 3 -2 6 -13 5 -11 0 -14 -3 -6 -6z"/>
<path d="M9850 610 c0 -5 5 -10 10 -10 6 0 10 5 10 10 0 6 -4 10 -10 10 -5 0
-10 -4 -10 -10z"/>
<path d="M10030 610 c0 -5 5 -10 10 -10 6 0 10 5 10 10 0 6 -4 10 -10 10 -5 0
-10 -4 -10 -10z"/>
<path d="M9802 596 c7 -8 15 -12 17 -11 5 6 -10 25 -20 25 -5 0 -4 -6 3 -14z"/>
<path d="M10083 596 c4 -10 7 -21 7 -25 0 -4 16 -15 36 -24 22 -11 33 -22 28
-30 -5 -8 -3 -8 7 1 12 11 10 16 -11 33 -25 21 -25 21 -2 16 19 -5 21 -3 11 9
-13 16 -54 20 -44 4 3 -5 1 -10 -4 -10 -6 0 -11 6 -11 14 0 8 -5 18 -12 22 -8
5 -9 2 -5 -10z"/>
<path d="M9630 580 c0 -5 5 -10 11 -10 5 0 7 5 4 10 -3 6 -8 10 -11 10 -2 0
-4 -4 -4 -10z"/>
<path d="M9846 575 c4 -8 8 -15 10 -15 2 0 4 7 4 15 0 8 -4 15 -10 15 -5 0 -7
-7 -4 -15z"/>
<path d="M9870 582 c0 -5 7 -13 16 -16 10 -4 14 -1 12 6 -5 15 -28 23 -28 10z"/>
<path d="M9756 565 c4 -8 10 -12 15 -9 11 6 2 24 -11 24 -5 0 -7 -7 -4 -15z"/>
<path d="M9996 565 c-3 -9 0 -15 9 -15 9 0 12 6 9 15 -4 8 -7 15 -9 15 -2 0
-5 -7 -9 -15z"/>
<path d="M9694 545 c8 -8 17 -15 20 -15 3 0 3 7 0 15 -4 8 -13 15 -21 15 -12
0 -12 -2 1 -15z"/>
<path d="M9387 544 c-3 -4 -3 -12 1 -18 7 -12 9 -18 11 -42 0 -8 6 -12 12 -9
6 4 8 13 5 21 -3 8 -1 14 4 14 6 0 10 5 10 12 0 6 -3 8 -7 5 -3 -4 -11 0 -17
9 -6 8 -15 12 -19 8z"/>
<path d="M9510 540 c0 -5 5 -10 11 -10 5 0 7 5 4 10 -3 6 -8 10 -11 10 -2 0
-4 -4 -4 -10z"/>
<path d="M9590 536 c0 -6 15 -12 33 -12 17 -1 24 1 15 3 -10 2 -18 8 -18 12 0
4 -7 8 -15 8 -8 0 -15 -5 -15 -11z"/>
<path d="M9870 539 c0 -5 -4 -7 -10 -4 -17 11 -11 -17 8 -32 9 -8 11 -11 3 -7
-7 3 -17 1 -22 -7 -6 -11 -12 -9 -29 6 -16 14 -23 16 -32 7 -7 -7 -20 -12 -31
-12 -10 0 -16 -4 -13 -9 8 -12 -18 -21 -34 -11 -14 9 -40 3 -40 -10 0 -5 10
-6 23 -3 16 3 18 2 9 -5 -11 -7 -11 -10 3 -15 9 -4 13 -3 10 2 -7 12 31 25 45
16 5 -3 10 -13 10 -21 0 -8 7 -14 15 -14 8 0 15 -4 15 -9 0 -12 35 -20 50 -11
7 4 22 5 34 2 19 -5 19 -7 -9 -19 l-30 -14 30 6 c49 11 50 10 48 -2 -2 -7 2
-13 8 -13 6 0 17 -7 26 -15 16 -17 35 -16 33 0 -1 6 -8 9 -16 7 -14 -3 -20 13
-6 21 4 2 1 2 -5 1 -7 -2 -13 1 -13 6 0 6 -3 9 -7 8 -5 -2 -18 5 -31 14 -17
11 -20 17 -10 21 7 3 3 6 -9 6 -12 1 -25 -3 -28 -9 -10 -16 -34 -12 -52 10
-10 11 -23 20 -30 20 -18 0 -27 21 -12 30 8 5 17 3 24 -7 8 -11 14 -12 19 -5
8 13 36 5 36 -10 0 -6 -6 -8 -13 -5 -8 3 -14 -1 -14 -9 0 -9 9 -13 23 -11 24
3 46 17 27 17 -6 0 -14 7 -17 16 -5 13 -2 15 14 11 11 -3 20 -1 20 5 0 6 7 7
16 4 8 -3 12 -2 9 4 -3 6 -1 10 4 10 6 0 11 -7 11 -15 0 -8 -5 -15 -11 -15 -5
0 -7 -4 -4 -10 11 -17 42 -11 48 10 3 11 1 20 -3 20 -5 0 -11 -8 -13 -17 -4
-14 -5 -13 -6 4 0 12 4 25 10 29 8 4 6 10 -6 17 -14 7 -21 6 -31 -8 -14 -19
-34 -12 -34 11 0 8 5 12 10 9 6 -3 10 -1 10 4 0 6 -7 11 -15 11 -8 0 -15 -5
-15 -11z"/>
<path d="M9971 534 c0 -11 3 -14 6 -6 3 7 2 16 -1 19 -3 4 -6 -2 -5 -13z"/>
<path d="M9831 514 c0 -11 3 -14 6 -6 3 7 2 16 -1 19 -3 4 -6 -2 -5 -13z"/>
<path d="M10010 520 c20 -13 40 -13 40 0 0 6 -12 10 -27 10 -22 0 -25 -2 -13
-10z"/>
<path d="M9745 510 c3 -5 11 -10 16 -10 6 0 7 5 4 10 -3 6 -11 10 -16 10 -6 0
-7 -4 -4 -10z"/>
<path d="M9587 496 c-4 -10 -5 -21 -2 -24 9 -9 17 6 13 25 -3 17 -4 17 -11 -1z"/>
<path d="M9630 500 c0 -5 5 -10 11 -10 5 0 7 5 4 10 -3 6 -8 10 -11 10 -2 0
-4 -4 -4 -10z"/>
<path d="M9660 496 c0 -10 -9 -20 -20 -23 -11 -3 -20 -12 -20 -19 0 -8 -4 -14
-9 -14 -5 0 -12 -8 -14 -17 -4 -14 -5 -13 -6 4 -1 21 -20 43 -22 26 0 -4 -2
-18 -3 -30 -2 -13 0 -23 3 -24 3 0 14 -2 24 -4 20 -4 37 21 37 55 0 6 6 10 14
10 15 0 32 37 22 47 -3 4 -6 -2 -6 -11z"/>
<path d="M9700 500 c-8 -5 -10 -10 -5 -10 6 0 17 5 25 10 8 5 11 10 5 10 -5 0
-17 -5 -25 -10z"/>
<path d="M10120 500 c0 -5 6 -10 13 -10 8 0 19 -10 25 -22 l11 -23 -3 23 c-3
30 -46 59 -46 32z"/>
<path d="M9550 489 c0 -5 -6 -7 -12 -3 -9 5 -8 2 1 -10 11 -13 16 -14 22 -4
12 18 11 28 -1 28 -5 0 -10 -5 -10 -11z"/>
<path d="M10043 478 c1 -15 6 -23 11 -18 4 4 4 16 -2 26 -9 16 -10 14 -9 -8z"/>
<path d="M10084 491 c4 -5 0 -11 -6 -13 -8 -3 -4 -10 11 -17 21 -12 23 -11 18
4 -4 9 -7 21 -7 26 0 5 -5 9 -11 9 -5 0 -8 -4 -5 -9z"/>
<path d="M9430 480 c0 -5 5 -10 10 -10 6 0 10 5 10 10 0 6 -4 10 -10 10 -5 0
-10 -4 -10 -10z"/>
<path d="M10006 465 c-3 -9 -10 -13 -16 -10 -17 11 -11 -4 11 -26 12 -12 27
-18 38 -14 13 4 20 -1 24 -17 4 -12 9 -19 13 -15 4 4 16 0 26 -10 10 -9 18
-11 18 -5 0 6 -9 16 -21 22 -11 7 -29 20 -40 31 -10 10 -27 19 -36 19 -12 0
-14 3 -6 8 7 4 9 13 4 21 -6 10 -10 9 -15 -4z"/>
<path d="M9400 445 c0 -8 2 -15 4 -15 2 0 6 7 10 15 3 8 1 15 -4 15 -6 0 -10
-7 -10 -15z"/>
<path d="M9736 441 c-3 -5 1 -11 9 -14 9 -4 12 -1 8 9 -6 16 -10 17 -17 5z"/>
<path d="M9956 433 c-3 -4 -6 -13 -5 -22 0 -12 3 -11 9 4 9 19 9 19 16 -2 3
-13 11 -23 18 -23 6 0 23 -7 39 -14 15 -8 27 -11 27 -6 0 5 -11 12 -25 16 -14
3 -25 10 -25 14 0 11 -47 40 -54 33z"/>
<path d="M10099 411 c14 -11 31 -17 38 -14 14 5 18 23 6 24 -5 0 -21 2 -38 4
l-30 4 24 -18z"/>
<path d="M9632 398 c2 -12 9 -24 17 -26 10 -3 12 0 8 12 -4 9 -2 16 3 16 6 0
10 5 10 10 0 6 -9 10 -21 10 -15 0 -20 -5 -17 -22z"/>
<path d="M9692 406 c8 -8 15 -10 19 -4 3 5 9 3 12 -6 4 -9 13 -16 22 -16 13 0
14 4 5 20 -7 13 -21 20 -41 20 -25 0 -28 -2 -17 -14z"/>
<path d="M10016 351 c-4 -6 -2 -11 3 -11 6 0 11 -4 11 -8 0 -4 -15 -7 -34 -7
-19 1 -35 -1 -34 -4 2 -21 -4 -31 -14 -25 -6 4 -8 3 -4 -4 10 -16 -7 -22 -21
-7 -10 11 -9 15 9 20 16 6 18 9 7 16 -15 10 -53 -26 -44 -41 3 -5 -1 -11 -7
-13 -8 -3 -6 -6 5 -6 9 -1 17 4 17 11 0 6 11 1 24 -11 16 -15 22 -30 19 -44
-4 -18 -3 -19 6 -7 10 14 12 13 15 -10 0 -5 4 -10 9 -10 4 0 11 0 17 0 5 0 7
7 4 15 -6 14 11 15 47 0 10 -3 19 0 22 7 4 11 -7 14 -44 13 -36 -1 -46 2 -38
11 5 7 18 10 29 7 10 -3 26 -1 35 4 14 8 13 12 -8 35 -18 19 -21 29 -13 41 7
12 7 20 -1 28 -8 8 -13 8 -17 0z m15 -61 c5 0 9 -4 9 -10 0 -5 -3 -9 -7 -8 -5
1 -21 -6 -36 -16 -26 -18 -29 -18 -44 -3 -15 15 -14 17 10 26 15 6 27 14 26
18 -3 20 2 23 17 9 8 -9 20 -16 25 -16z"/>
<path d="M10100 348 c13 -11 25 -88 14 -88 -4 0 -27 49 -28 62 -1 3 -5 10 -10
15 -6 5 -6 2 -1 -6 6 -10 4 -13 -7 -9 -9 4 -15 0 -15 -8 0 -8 6 -13 13 -10 7
3 15 -2 18 -10 9 -23 8 -24 -11 -17 -14 6 -14 3 2 -19 11 -13 24 -25 30 -25 5
0 23 -4 39 -8 22 -6 28 -5 24 6 -3 8 -13 13 -23 11 -12 -2 -16 1 -12 11 3 8 3
18 0 21 -4 3 -7 17 -8 31 0 18 4 25 18 25 17 0 18 -2 6 -17 -11 -15 -11 -16 1
-6 14 13 22 53 10 53 -3 0 -11 -5 -17 -11 -8 -8 -17 -8 -34 1 -20 9 -22 9 -9
-2z"/>
<path d="M10090 218 c-8 -32 -2 -53 13 -52 9 1 17 -4 17 -11 0 -13 22 -26 43
-24 7 0 2 4 -10 9 -13 5 -23 16 -23 25 0 8 -5 15 -10 15 -6 0 -15 10 -20 23
-5 12 -10 19 -10 15z"/>
<path d="M10130 199 c14 -12 24 -26 23 -30 -2 -5 2 -9 7 -9 24 0 -4 42 -35 53
-16 6 -16 3 5 -14z"/>
<path d="M9755 190 c3 -5 8 -10 11 -10 2 0 4 5 4 10 0 6 -5 10 -11 10 -5 0 -7
-4 -4 -10z"/>
<path d="M10015 180 c-3 -5 -1 -10 4 -10 6 0 11 5 11 10 0 6 -2 10 -4 10 -3 0
-8 -4 -11 -10z"/>
<path d="M10045 180 c-3 -5 -1 -10 4 -10 6 0 11 5 11 10 0 6 -2 10 -4 10 -3 0
-8 -4 -11 -10z"/>
<path d="M10140 110 c20 -13 33 -13 25 0 -3 6 -14 10 -23 10 -15 0 -15 -2 -2
-10z"/>
</g>
</svg>
